G04 #@! TF.GenerationSoftware,KiCad,Pcbnew,5.1.4-5.1.4*
G04 #@! TF.CreationDate,2019-08-13T11:30:28+01:00*
G04 #@! TF.ProjectId,music5xxx,6d757369-6335-4787-9878-2e6b69636164,1*
G04 #@! TF.SameCoordinates,Original*
G04 #@! TF.FileFunction,Legend,Bot*
G04 #@! TF.FilePolarity,Positive*
%FSLAX46Y46*%
G04 Gerber Fmt 4.6, Leading zero omitted, Abs format (unit mm)*
G04 Created by KiCad (PCBNEW 5.1.4-5.1.4) date 2019-08-13 11:30:28*
%MOMM*%
%LPD*%
G04 APERTURE LIST*
%ADD10C,0.150000*%
%ADD11C,0.250000*%
%ADD12C,0.200000*%
%ADD13C,0.600000*%
%ADD14O,2.102000X2.702000*%
%ADD15R,2.102000X2.702000*%
%ADD16R,2.502000X1.502000*%
%ADD17O,2.502000X1.502000*%
%ADD18R,2.502000X1.702000*%
%ADD19O,2.502000X1.702000*%
%ADD20R,2.702000X2.102000*%
%ADD21O,2.702000X2.102000*%
%ADD22O,2.602000X1.602000*%
%ADD23R,2.602000X1.602000*%
%ADD24C,2.502000*%
%ADD25R,2.502000X2.502000*%
%ADD26O,2.302000X1.802000*%
%ADD27R,2.302000X1.602000*%
%ADD28O,2.302000X1.602000*%
%ADD29C,7.102000*%
%ADD30C,2.002000*%
%ADD31O,2.302000X2.802000*%
%ADD32R,2.302000X2.302000*%
%ADD33O,2.302000X2.302000*%
%ADD34R,1.902000X1.902000*%
%ADD35C,1.902000*%
%ADD36O,1.802000X2.302000*%
%ADD37O,1.702000X1.702000*%
%ADD38C,1.702000*%
%ADD39R,2.002000X2.002000*%
%ADD40C,2.102000*%
%ADD41R,2.602000X1.902000*%
%ADD42O,2.602000X1.902000*%
%ADD43R,1.702000X1.702000*%
%ADD44O,1.802000X1.802000*%
%ADD45R,1.802000X1.802000*%
G04 APERTURE END LIST*
D10*
X209131428Y-108677142D02*
X208750476Y-108677142D01*
X208750476Y-109877142D01*
X211036190Y-109820000D02*
X210960000Y-109877142D01*
X210845714Y-109877142D01*
X210731428Y-109820000D01*
X210655238Y-109705714D01*
X210617142Y-109591428D01*
X210579047Y-109362857D01*
X210579047Y-109191428D01*
X210617142Y-108962857D01*
X210655238Y-108848571D01*
X210731428Y-108734285D01*
X210845714Y-108677142D01*
X210921904Y-108677142D01*
X211036190Y-108734285D01*
X211074285Y-108791428D01*
X211074285Y-109191428D01*
X210921904Y-109191428D01*
X211417142Y-109477142D02*
X211417142Y-108677142D01*
X211417142Y-109362857D02*
X211455238Y-109420000D01*
X211531428Y-109477142D01*
X211645714Y-109477142D01*
X211721904Y-109420000D01*
X211760000Y-109305714D01*
X211760000Y-108677142D01*
X212483809Y-108677142D02*
X212483809Y-109877142D01*
X212483809Y-108734285D02*
X212407619Y-108677142D01*
X212255238Y-108677142D01*
X212179047Y-108734285D01*
X212140952Y-108791428D01*
X212102857Y-108905714D01*
X212102857Y-109248571D01*
X212140952Y-109362857D01*
X212179047Y-109420000D01*
X212255238Y-109477142D01*
X212407619Y-109477142D01*
X212483809Y-109420000D01*
X214540952Y-108677142D02*
X214274285Y-109248571D01*
X214083809Y-108677142D02*
X214083809Y-109877142D01*
X214388571Y-109877142D01*
X214464761Y-109820000D01*
X214502857Y-109762857D01*
X214540952Y-109648571D01*
X214540952Y-109477142D01*
X214502857Y-109362857D01*
X214464761Y-109305714D01*
X214388571Y-109248571D01*
X214083809Y-109248571D01*
X216521904Y-109820000D02*
X216445714Y-109877142D01*
X216331428Y-109877142D01*
X216217142Y-109820000D01*
X216140952Y-109705714D01*
X216102857Y-109591428D01*
X216064761Y-109362857D01*
X216064761Y-109191428D01*
X216102857Y-108962857D01*
X216140952Y-108848571D01*
X216217142Y-108734285D01*
X216331428Y-108677142D01*
X216407619Y-108677142D01*
X216521904Y-108734285D01*
X216560000Y-108791428D01*
X216560000Y-109191428D01*
X216407619Y-109191428D01*
X216902857Y-109477142D02*
X216902857Y-108677142D01*
X216902857Y-109362857D02*
X216940952Y-109420000D01*
X217017142Y-109477142D01*
X217131428Y-109477142D01*
X217207619Y-109420000D01*
X217245714Y-109305714D01*
X217245714Y-108677142D01*
X217969523Y-108677142D02*
X217969523Y-109877142D01*
X217969523Y-108734285D02*
X217893333Y-108677142D01*
X217740952Y-108677142D01*
X217664761Y-108734285D01*
X217626666Y-108791428D01*
X217588571Y-108905714D01*
X217588571Y-109248571D01*
X217626666Y-109362857D01*
X217664761Y-109420000D01*
X217740952Y-109477142D01*
X217893333Y-109477142D01*
X217969523Y-109420000D01*
X211893333Y-117275000D02*
X212274285Y-117275000D01*
X211817142Y-116932142D02*
X212083809Y-118132142D01*
X212350476Y-116932142D01*
X212960000Y-117732142D02*
X212960000Y-116932142D01*
X212617142Y-117732142D02*
X212617142Y-117103571D01*
X212655238Y-116989285D01*
X212731428Y-116932142D01*
X212845714Y-116932142D01*
X212921904Y-116989285D01*
X212960000Y-117046428D01*
X213683809Y-116932142D02*
X213683809Y-118132142D01*
X213683809Y-116989285D02*
X213607619Y-116932142D01*
X213455238Y-116932142D01*
X213379047Y-116989285D01*
X213340952Y-117046428D01*
X213302857Y-117160714D01*
X213302857Y-117503571D01*
X213340952Y-117617857D01*
X213379047Y-117675000D01*
X213455238Y-117732142D01*
X213607619Y-117732142D01*
X213683809Y-117675000D01*
X214064761Y-116932142D02*
X214064761Y-117732142D01*
X214064761Y-118132142D02*
X214026666Y-118075000D01*
X214064761Y-118017857D01*
X214102857Y-118075000D01*
X214064761Y-118132142D01*
X214064761Y-118017857D01*
X214560000Y-116932142D02*
X214483809Y-116989285D01*
X214445714Y-117046428D01*
X214407619Y-117160714D01*
X214407619Y-117503571D01*
X214445714Y-117617857D01*
X214483809Y-117675000D01*
X214560000Y-117732142D01*
X214674285Y-117732142D01*
X214750476Y-117675000D01*
X214788571Y-117617857D01*
X214826666Y-117503571D01*
X214826666Y-117160714D01*
X214788571Y-117046428D01*
X214750476Y-116989285D01*
X214674285Y-116932142D01*
X214560000Y-116932142D01*
X209131428Y-137887142D02*
X208750476Y-137887142D01*
X208750476Y-139087142D01*
X211036190Y-139030000D02*
X210960000Y-139087142D01*
X210845714Y-139087142D01*
X210731428Y-139030000D01*
X210655238Y-138915714D01*
X210617142Y-138801428D01*
X210579047Y-138572857D01*
X210579047Y-138401428D01*
X210617142Y-138172857D01*
X210655238Y-138058571D01*
X210731428Y-137944285D01*
X210845714Y-137887142D01*
X210921904Y-137887142D01*
X211036190Y-137944285D01*
X211074285Y-138001428D01*
X211074285Y-138401428D01*
X210921904Y-138401428D01*
X211417142Y-138687142D02*
X211417142Y-137887142D01*
X211417142Y-138572857D02*
X211455238Y-138630000D01*
X211531428Y-138687142D01*
X211645714Y-138687142D01*
X211721904Y-138630000D01*
X211760000Y-138515714D01*
X211760000Y-137887142D01*
X212483809Y-137887142D02*
X212483809Y-139087142D01*
X212483809Y-137944285D02*
X212407619Y-137887142D01*
X212255238Y-137887142D01*
X212179047Y-137944285D01*
X212140952Y-138001428D01*
X212102857Y-138115714D01*
X212102857Y-138458571D01*
X212140952Y-138572857D01*
X212179047Y-138630000D01*
X212255238Y-138687142D01*
X212407619Y-138687142D01*
X212483809Y-138630000D01*
X214540952Y-137887142D02*
X214274285Y-138458571D01*
X214083809Y-137887142D02*
X214083809Y-139087142D01*
X214388571Y-139087142D01*
X214464761Y-139030000D01*
X214502857Y-138972857D01*
X214540952Y-138858571D01*
X214540952Y-138687142D01*
X214502857Y-138572857D01*
X214464761Y-138515714D01*
X214388571Y-138458571D01*
X214083809Y-138458571D01*
X216521904Y-139030000D02*
X216445714Y-139087142D01*
X216331428Y-139087142D01*
X216217142Y-139030000D01*
X216140952Y-138915714D01*
X216102857Y-138801428D01*
X216064761Y-138572857D01*
X216064761Y-138401428D01*
X216102857Y-138172857D01*
X216140952Y-138058571D01*
X216217142Y-137944285D01*
X216331428Y-137887142D01*
X216407619Y-137887142D01*
X216521904Y-137944285D01*
X216560000Y-138001428D01*
X216560000Y-138401428D01*
X216407619Y-138401428D01*
X216902857Y-138687142D02*
X216902857Y-137887142D01*
X216902857Y-138572857D02*
X216940952Y-138630000D01*
X217017142Y-138687142D01*
X217131428Y-138687142D01*
X217207619Y-138630000D01*
X217245714Y-138515714D01*
X217245714Y-137887142D01*
X217969523Y-137887142D02*
X217969523Y-139087142D01*
X217969523Y-137944285D02*
X217893333Y-137887142D01*
X217740952Y-137887142D01*
X217664761Y-137944285D01*
X217626666Y-138001428D01*
X217588571Y-138115714D01*
X217588571Y-138458571D01*
X217626666Y-138572857D01*
X217664761Y-138630000D01*
X217740952Y-138687142D01*
X217893333Y-138687142D01*
X217969523Y-138630000D01*
X208960000Y-140135000D02*
X209340952Y-140135000D01*
X208883809Y-139792142D02*
X209150476Y-140992142D01*
X209417142Y-139792142D01*
X210026666Y-140592142D02*
X210026666Y-139792142D01*
X209683809Y-140592142D02*
X209683809Y-139963571D01*
X209721904Y-139849285D01*
X209798095Y-139792142D01*
X209912380Y-139792142D01*
X209988571Y-139849285D01*
X210026666Y-139906428D01*
X210750476Y-139792142D02*
X210750476Y-140992142D01*
X210750476Y-139849285D02*
X210674285Y-139792142D01*
X210521904Y-139792142D01*
X210445714Y-139849285D01*
X210407619Y-139906428D01*
X210369523Y-140020714D01*
X210369523Y-140363571D01*
X210407619Y-140477857D01*
X210445714Y-140535000D01*
X210521904Y-140592142D01*
X210674285Y-140592142D01*
X210750476Y-140535000D01*
X211131428Y-139792142D02*
X211131428Y-140592142D01*
X211131428Y-140992142D02*
X211093333Y-140935000D01*
X211131428Y-140877857D01*
X211169523Y-140935000D01*
X211131428Y-140992142D01*
X211131428Y-140877857D01*
X211626666Y-139792142D02*
X211550476Y-139849285D01*
X211512380Y-139906428D01*
X211474285Y-140020714D01*
X211474285Y-140363571D01*
X211512380Y-140477857D01*
X211550476Y-140535000D01*
X211626666Y-140592142D01*
X211740952Y-140592142D01*
X211817142Y-140535000D01*
X211855238Y-140477857D01*
X211893333Y-140363571D01*
X211893333Y-140020714D01*
X211855238Y-139906428D01*
X211817142Y-139849285D01*
X211740952Y-139792142D01*
X211626666Y-139792142D01*
X212807619Y-139849285D02*
X212921904Y-139792142D01*
X213112380Y-139792142D01*
X213188571Y-139849285D01*
X213226666Y-139906428D01*
X213264761Y-140020714D01*
X213264761Y-140135000D01*
X213226666Y-140249285D01*
X213188571Y-140306428D01*
X213112380Y-140363571D01*
X212960000Y-140420714D01*
X212883809Y-140477857D01*
X212845714Y-140535000D01*
X212807619Y-140649285D01*
X212807619Y-140763571D01*
X212845714Y-140877857D01*
X212883809Y-140935000D01*
X212960000Y-140992142D01*
X213150476Y-140992142D01*
X213264761Y-140935000D01*
X213531428Y-140592142D02*
X213683809Y-139792142D01*
X213836190Y-140363571D01*
X213988571Y-139792142D01*
X214140952Y-140592142D01*
X214445714Y-139792142D02*
X214445714Y-140592142D01*
X214445714Y-140992142D02*
X214407619Y-140935000D01*
X214445714Y-140877857D01*
X214483809Y-140935000D01*
X214445714Y-140992142D01*
X214445714Y-140877857D01*
X214712380Y-140592142D02*
X215017142Y-140592142D01*
X214826666Y-140992142D02*
X214826666Y-139963571D01*
X214864761Y-139849285D01*
X214940952Y-139792142D01*
X215017142Y-139792142D01*
X215626666Y-139849285D02*
X215550476Y-139792142D01*
X215398095Y-139792142D01*
X215321904Y-139849285D01*
X215283809Y-139906428D01*
X215245714Y-140020714D01*
X215245714Y-140363571D01*
X215283809Y-140477857D01*
X215321904Y-140535000D01*
X215398095Y-140592142D01*
X215550476Y-140592142D01*
X215626666Y-140535000D01*
X215969523Y-139792142D02*
X215969523Y-140992142D01*
X216312380Y-139792142D02*
X216312380Y-140420714D01*
X216274285Y-140535000D01*
X216198095Y-140592142D01*
X216083809Y-140592142D01*
X216007619Y-140535000D01*
X215969523Y-140477857D01*
X216998095Y-139849285D02*
X216921904Y-139792142D01*
X216769523Y-139792142D01*
X216693333Y-139849285D01*
X216655238Y-139963571D01*
X216655238Y-140420714D01*
X216693333Y-140535000D01*
X216769523Y-140592142D01*
X216921904Y-140592142D01*
X216998095Y-140535000D01*
X217036190Y-140420714D01*
X217036190Y-140306428D01*
X216655238Y-140192142D01*
X217721904Y-139792142D02*
X217721904Y-140992142D01*
X217721904Y-139849285D02*
X217645714Y-139792142D01*
X217493333Y-139792142D01*
X217417142Y-139849285D01*
X217379047Y-139906428D01*
X217340952Y-140020714D01*
X217340952Y-140363571D01*
X217379047Y-140477857D01*
X217417142Y-140535000D01*
X217493333Y-140592142D01*
X217645714Y-140592142D01*
X217721904Y-140535000D01*
D11*
X61146428Y-79072857D02*
X61146428Y-79549047D01*
X60432142Y-79596666D01*
X60503571Y-79549047D01*
X60575000Y-79453809D01*
X60575000Y-79215714D01*
X60503571Y-79120476D01*
X60432142Y-79072857D01*
X60289285Y-79025238D01*
X59932142Y-79025238D01*
X59789285Y-79072857D01*
X59717857Y-79120476D01*
X59646428Y-79215714D01*
X59646428Y-79453809D01*
X59717857Y-79549047D01*
X59789285Y-79596666D01*
X61146428Y-78739523D02*
X59646428Y-78406190D01*
X61146428Y-78072857D01*
X61146428Y-71453809D02*
X61146428Y-71358571D01*
X61075000Y-71263333D01*
X61003571Y-71215714D01*
X60860714Y-71168095D01*
X60575000Y-71120476D01*
X60217857Y-71120476D01*
X59932142Y-71168095D01*
X59789285Y-71215714D01*
X59717857Y-71263333D01*
X59646428Y-71358571D01*
X59646428Y-71453809D01*
X59717857Y-71549047D01*
X59789285Y-71596666D01*
X59932142Y-71644285D01*
X60217857Y-71691904D01*
X60575000Y-71691904D01*
X60860714Y-71644285D01*
X61003571Y-71596666D01*
X61075000Y-71549047D01*
X61146428Y-71453809D01*
X61146428Y-70834761D02*
X59646428Y-70501428D01*
X61146428Y-70168095D01*
D12*
X91796428Y-67972857D02*
X91653571Y-68044285D01*
X91605952Y-68115714D01*
X91558333Y-68258571D01*
X91558333Y-68472857D01*
X91605952Y-68615714D01*
X91653571Y-68687142D01*
X91748809Y-68758571D01*
X92129761Y-68758571D01*
X92129761Y-67258571D01*
X91796428Y-67258571D01*
X91701190Y-67330000D01*
X91653571Y-67401428D01*
X91605952Y-67544285D01*
X91605952Y-67687142D01*
X91653571Y-67830000D01*
X91701190Y-67901428D01*
X91796428Y-67972857D01*
X92129761Y-67972857D01*
X90701190Y-68758571D02*
X90701190Y-67972857D01*
X90748809Y-67830000D01*
X90844047Y-67758571D01*
X91034523Y-67758571D01*
X91129761Y-67830000D01*
X90701190Y-68687142D02*
X90796428Y-68758571D01*
X91034523Y-68758571D01*
X91129761Y-68687142D01*
X91177380Y-68544285D01*
X91177380Y-68401428D01*
X91129761Y-68258571D01*
X91034523Y-68187142D01*
X90796428Y-68187142D01*
X90701190Y-68115714D01*
X90272619Y-68687142D02*
X90177380Y-68758571D01*
X89986904Y-68758571D01*
X89891666Y-68687142D01*
X89844047Y-68544285D01*
X89844047Y-68472857D01*
X89891666Y-68330000D01*
X89986904Y-68258571D01*
X90129761Y-68258571D01*
X90225000Y-68187142D01*
X90272619Y-68044285D01*
X90272619Y-67972857D01*
X90225000Y-67830000D01*
X90129761Y-67758571D01*
X89986904Y-67758571D01*
X89891666Y-67830000D01*
X89034523Y-68687142D02*
X89129761Y-68758571D01*
X89320238Y-68758571D01*
X89415476Y-68687142D01*
X89463095Y-68544285D01*
X89463095Y-67972857D01*
X89415476Y-67830000D01*
X89320238Y-67758571D01*
X89129761Y-67758571D01*
X89034523Y-67830000D01*
X88986904Y-67972857D01*
X88986904Y-68115714D01*
X89463095Y-68258571D01*
X88129761Y-68758571D02*
X88129761Y-67258571D01*
X88129761Y-68687142D02*
X88225000Y-68758571D01*
X88415476Y-68758571D01*
X88510714Y-68687142D01*
X88558333Y-68615714D01*
X88605952Y-68472857D01*
X88605952Y-68044285D01*
X88558333Y-67901428D01*
X88510714Y-67830000D01*
X88415476Y-67758571D01*
X88225000Y-67758571D01*
X88129761Y-67830000D01*
X86748809Y-68758571D02*
X86844047Y-68687142D01*
X86891666Y-68615714D01*
X86939285Y-68472857D01*
X86939285Y-68044285D01*
X86891666Y-67901428D01*
X86844047Y-67830000D01*
X86748809Y-67758571D01*
X86605952Y-67758571D01*
X86510714Y-67830000D01*
X86463095Y-67901428D01*
X86415476Y-68044285D01*
X86415476Y-68472857D01*
X86463095Y-68615714D01*
X86510714Y-68687142D01*
X86605952Y-68758571D01*
X86748809Y-68758571D01*
X85986904Y-67758571D02*
X85986904Y-68758571D01*
X85986904Y-67901428D02*
X85939285Y-67830000D01*
X85844047Y-67758571D01*
X85701190Y-67758571D01*
X85605952Y-67830000D01*
X85558333Y-67972857D01*
X85558333Y-68758571D01*
X84320238Y-68758571D02*
X84320238Y-67258571D01*
X84320238Y-67972857D02*
X83748809Y-67972857D01*
X83748809Y-68758571D02*
X83748809Y-67258571D01*
X83367857Y-67758571D02*
X83129761Y-68758571D01*
X82891666Y-67758571D02*
X83129761Y-68758571D01*
X83225000Y-69115714D01*
X83272619Y-69187142D01*
X83367857Y-69258571D01*
X82510714Y-68758571D02*
X82510714Y-67258571D01*
X82510714Y-67830000D02*
X82415476Y-67758571D01*
X82225000Y-67758571D01*
X82129761Y-67830000D01*
X82082142Y-67901428D01*
X82034523Y-68044285D01*
X82034523Y-68472857D01*
X82082142Y-68615714D01*
X82129761Y-68687142D01*
X82225000Y-68758571D01*
X82415476Y-68758571D01*
X82510714Y-68687142D01*
X81605952Y-68758571D02*
X81605952Y-67758571D01*
X81605952Y-68044285D02*
X81558333Y-67901428D01*
X81510714Y-67830000D01*
X81415476Y-67758571D01*
X81320238Y-67758571D01*
X80986904Y-68758571D02*
X80986904Y-67758571D01*
X80986904Y-67258571D02*
X81034523Y-67330000D01*
X80986904Y-67401428D01*
X80939285Y-67330000D01*
X80986904Y-67258571D01*
X80986904Y-67401428D01*
X80082142Y-68758571D02*
X80082142Y-67258571D01*
X80082142Y-68687142D02*
X80177380Y-68758571D01*
X80367857Y-68758571D01*
X80463095Y-68687142D01*
X80510714Y-68615714D01*
X80558333Y-68472857D01*
X80558333Y-68044285D01*
X80510714Y-67901428D01*
X80463095Y-67830000D01*
X80367857Y-67758571D01*
X80177380Y-67758571D01*
X80082142Y-67830000D01*
X96629761Y-71208571D02*
X96629761Y-69708571D01*
X96296428Y-70780000D01*
X95963095Y-69708571D01*
X95963095Y-71208571D01*
X95058333Y-70208571D02*
X95058333Y-71208571D01*
X95486904Y-70208571D02*
X95486904Y-70994285D01*
X95439285Y-71137142D01*
X95344047Y-71208571D01*
X95201190Y-71208571D01*
X95105952Y-71137142D01*
X95058333Y-71065714D01*
X94629761Y-71137142D02*
X94534523Y-71208571D01*
X94344047Y-71208571D01*
X94248809Y-71137142D01*
X94201190Y-70994285D01*
X94201190Y-70922857D01*
X94248809Y-70780000D01*
X94344047Y-70708571D01*
X94486904Y-70708571D01*
X94582142Y-70637142D01*
X94629761Y-70494285D01*
X94629761Y-70422857D01*
X94582142Y-70280000D01*
X94486904Y-70208571D01*
X94344047Y-70208571D01*
X94248809Y-70280000D01*
X93772619Y-71208571D02*
X93772619Y-70208571D01*
X93772619Y-69708571D02*
X93820238Y-69780000D01*
X93772619Y-69851428D01*
X93725000Y-69780000D01*
X93772619Y-69708571D01*
X93772619Y-69851428D01*
X92867857Y-71137142D02*
X92963095Y-71208571D01*
X93153571Y-71208571D01*
X93248809Y-71137142D01*
X93296428Y-71065714D01*
X93344047Y-70922857D01*
X93344047Y-70494285D01*
X93296428Y-70351428D01*
X93248809Y-70280000D01*
X93153571Y-70208571D01*
X92963095Y-70208571D01*
X92867857Y-70280000D01*
X91201190Y-69708571D02*
X91677380Y-69708571D01*
X91725000Y-70422857D01*
X91677380Y-70351428D01*
X91582142Y-70280000D01*
X91344047Y-70280000D01*
X91248809Y-70351428D01*
X91201190Y-70422857D01*
X91153571Y-70565714D01*
X91153571Y-70922857D01*
X91201190Y-71065714D01*
X91248809Y-71137142D01*
X91344047Y-71208571D01*
X91582142Y-71208571D01*
X91677380Y-71137142D01*
X91725000Y-71065714D01*
X90534523Y-69708571D02*
X90439285Y-69708571D01*
X90344047Y-69780000D01*
X90296428Y-69851428D01*
X90248809Y-69994285D01*
X90201190Y-70280000D01*
X90201190Y-70637142D01*
X90248809Y-70922857D01*
X90296428Y-71065714D01*
X90344047Y-71137142D01*
X90439285Y-71208571D01*
X90534523Y-71208571D01*
X90629761Y-71137142D01*
X90677380Y-71065714D01*
X90725000Y-70922857D01*
X90772619Y-70637142D01*
X90772619Y-70280000D01*
X90725000Y-69994285D01*
X90677380Y-69851428D01*
X90629761Y-69780000D01*
X90534523Y-69708571D01*
X89582142Y-69708571D02*
X89486904Y-69708571D01*
X89391666Y-69780000D01*
X89344047Y-69851428D01*
X89296428Y-69994285D01*
X89248809Y-70280000D01*
X89248809Y-70637142D01*
X89296428Y-70922857D01*
X89344047Y-71065714D01*
X89391666Y-71137142D01*
X89486904Y-71208571D01*
X89582142Y-71208571D01*
X89677380Y-71137142D01*
X89725000Y-71065714D01*
X89772619Y-70922857D01*
X89820238Y-70637142D01*
X89820238Y-70280000D01*
X89772619Y-69994285D01*
X89725000Y-69851428D01*
X89677380Y-69780000D01*
X89582142Y-69708571D01*
X88629761Y-69708571D02*
X88534523Y-69708571D01*
X88439285Y-69780000D01*
X88391666Y-69851428D01*
X88344047Y-69994285D01*
X88296428Y-70280000D01*
X88296428Y-70637142D01*
X88344047Y-70922857D01*
X88391666Y-71065714D01*
X88439285Y-71137142D01*
X88534523Y-71208571D01*
X88629761Y-71208571D01*
X88725000Y-71137142D01*
X88772619Y-71065714D01*
X88820238Y-70922857D01*
X88867857Y-70637142D01*
X88867857Y-70280000D01*
X88820238Y-69994285D01*
X88772619Y-69851428D01*
X88725000Y-69780000D01*
X88629761Y-69708571D01*
X87105952Y-71208571D02*
X87105952Y-69708571D01*
X87105952Y-70280000D02*
X87010714Y-70208571D01*
X86820238Y-70208571D01*
X86725000Y-70280000D01*
X86677380Y-70351428D01*
X86629761Y-70494285D01*
X86629761Y-70922857D01*
X86677380Y-71065714D01*
X86725000Y-71137142D01*
X86820238Y-71208571D01*
X87010714Y-71208571D01*
X87105952Y-71137142D01*
X86296428Y-70208571D02*
X86058333Y-71208571D01*
X85820238Y-70208571D02*
X86058333Y-71208571D01*
X86153571Y-71565714D01*
X86201190Y-71637142D01*
X86296428Y-71708571D01*
X84105952Y-71065714D02*
X84153571Y-71137142D01*
X84296428Y-71208571D01*
X84391666Y-71208571D01*
X84534523Y-71137142D01*
X84629761Y-70994285D01*
X84677380Y-70851428D01*
X84725000Y-70565714D01*
X84725000Y-70351428D01*
X84677380Y-70065714D01*
X84629761Y-69922857D01*
X84534523Y-69780000D01*
X84391666Y-69708571D01*
X84296428Y-69708571D01*
X84153571Y-69780000D01*
X84105952Y-69851428D01*
X83677380Y-71208571D02*
X83677380Y-69708571D01*
X83248809Y-71208571D02*
X83248809Y-70422857D01*
X83296428Y-70280000D01*
X83391666Y-70208571D01*
X83534523Y-70208571D01*
X83629761Y-70280000D01*
X83677380Y-70351428D01*
X82772619Y-71208571D02*
X82772619Y-70208571D01*
X82772619Y-70494285D02*
X82725000Y-70351428D01*
X82677380Y-70280000D01*
X82582142Y-70208571D01*
X82486904Y-70208571D01*
X82153571Y-71208571D02*
X82153571Y-70208571D01*
X82153571Y-69708571D02*
X82201190Y-69780000D01*
X82153571Y-69851428D01*
X82105952Y-69780000D01*
X82153571Y-69708571D01*
X82153571Y-69851428D01*
X81725000Y-71137142D02*
X81629761Y-71208571D01*
X81439285Y-71208571D01*
X81344047Y-71137142D01*
X81296428Y-70994285D01*
X81296428Y-70922857D01*
X81344047Y-70780000D01*
X81439285Y-70708571D01*
X81582142Y-70708571D01*
X81677380Y-70637142D01*
X81725000Y-70494285D01*
X81725000Y-70422857D01*
X81677380Y-70280000D01*
X81582142Y-70208571D01*
X81439285Y-70208571D01*
X81344047Y-70280000D01*
X79820238Y-69708571D02*
X79820238Y-70780000D01*
X79867857Y-70994285D01*
X79963095Y-71137142D01*
X80105952Y-71208571D01*
X80201190Y-71208571D01*
X79201190Y-71208571D02*
X79296428Y-71137142D01*
X79344047Y-71065714D01*
X79391666Y-70922857D01*
X79391666Y-70494285D01*
X79344047Y-70351428D01*
X79296428Y-70280000D01*
X79201190Y-70208571D01*
X79058333Y-70208571D01*
X78963095Y-70280000D01*
X78915476Y-70351428D01*
X78867857Y-70494285D01*
X78867857Y-70922857D01*
X78915476Y-71065714D01*
X78963095Y-71137142D01*
X79058333Y-71208571D01*
X79201190Y-71208571D01*
X78439285Y-71208571D02*
X78439285Y-70208571D01*
X78439285Y-70494285D02*
X78391666Y-70351428D01*
X78344047Y-70280000D01*
X78248809Y-70208571D01*
X78153571Y-70208571D01*
X77391666Y-71208571D02*
X77391666Y-69708571D01*
X77391666Y-71137142D02*
X77486904Y-71208571D01*
X77677380Y-71208571D01*
X77772619Y-71137142D01*
X77820238Y-71065714D01*
X77867857Y-70922857D01*
X77867857Y-70494285D01*
X77820238Y-70351428D01*
X77772619Y-70280000D01*
X77677380Y-70208571D01*
X77486904Y-70208571D01*
X77391666Y-70280000D01*
X76486904Y-71208571D02*
X76486904Y-70422857D01*
X76534523Y-70280000D01*
X76629761Y-70208571D01*
X76820238Y-70208571D01*
X76915476Y-70280000D01*
X76486904Y-71137142D02*
X76582142Y-71208571D01*
X76820238Y-71208571D01*
X76915476Y-71137142D01*
X76963095Y-70994285D01*
X76963095Y-70851428D01*
X76915476Y-70708571D01*
X76820238Y-70637142D01*
X76582142Y-70637142D01*
X76486904Y-70565714D01*
X76010714Y-70208571D02*
X76010714Y-71208571D01*
X76010714Y-70351428D02*
X75963095Y-70280000D01*
X75867857Y-70208571D01*
X75725000Y-70208571D01*
X75629761Y-70280000D01*
X75582142Y-70422857D01*
X75582142Y-71208571D01*
X93463095Y-72158571D02*
X92891666Y-72158571D01*
X93177380Y-73658571D02*
X93177380Y-72158571D01*
X92558333Y-73658571D02*
X92558333Y-72158571D01*
X92129761Y-73658571D02*
X92129761Y-72872857D01*
X92177380Y-72730000D01*
X92272619Y-72658571D01*
X92415476Y-72658571D01*
X92510714Y-72730000D01*
X92558333Y-72801428D01*
X91653571Y-73658571D02*
X91653571Y-72658571D01*
X91653571Y-72158571D02*
X91701190Y-72230000D01*
X91653571Y-72301428D01*
X91605952Y-72230000D01*
X91653571Y-72158571D01*
X91653571Y-72301428D01*
X91225000Y-73587142D02*
X91129761Y-73658571D01*
X90939285Y-73658571D01*
X90844047Y-73587142D01*
X90796428Y-73444285D01*
X90796428Y-73372857D01*
X90844047Y-73230000D01*
X90939285Y-73158571D01*
X91082142Y-73158571D01*
X91177380Y-73087142D01*
X91225000Y-72944285D01*
X91225000Y-72872857D01*
X91177380Y-72730000D01*
X91082142Y-72658571D01*
X90939285Y-72658571D01*
X90844047Y-72730000D01*
X89605952Y-73658571D02*
X89605952Y-72158571D01*
X89225000Y-72158571D01*
X89129761Y-72230000D01*
X89082142Y-72301428D01*
X89034523Y-72444285D01*
X89034523Y-72658571D01*
X89082142Y-72801428D01*
X89129761Y-72872857D01*
X89225000Y-72944285D01*
X89605952Y-72944285D01*
X88034523Y-73515714D02*
X88082142Y-73587142D01*
X88225000Y-73658571D01*
X88320238Y-73658571D01*
X88463095Y-73587142D01*
X88558333Y-73444285D01*
X88605952Y-73301428D01*
X88653571Y-73015714D01*
X88653571Y-72801428D01*
X88605952Y-72515714D01*
X88558333Y-72372857D01*
X88463095Y-72230000D01*
X88320238Y-72158571D01*
X88225000Y-72158571D01*
X88082142Y-72230000D01*
X88034523Y-72301428D01*
X87272619Y-72872857D02*
X87129761Y-72944285D01*
X87082142Y-73015714D01*
X87034523Y-73158571D01*
X87034523Y-73372857D01*
X87082142Y-73515714D01*
X87129761Y-73587142D01*
X87225000Y-73658571D01*
X87605952Y-73658571D01*
X87605952Y-72158571D01*
X87272619Y-72158571D01*
X87177380Y-72230000D01*
X87129761Y-72301428D01*
X87082142Y-72444285D01*
X87082142Y-72587142D01*
X87129761Y-72730000D01*
X87177380Y-72801428D01*
X87272619Y-72872857D01*
X87605952Y-72872857D01*
X85415476Y-73658571D02*
X85415476Y-72872857D01*
X85463095Y-72730000D01*
X85558333Y-72658571D01*
X85748809Y-72658571D01*
X85844047Y-72730000D01*
X85415476Y-73587142D02*
X85510714Y-73658571D01*
X85748809Y-73658571D01*
X85844047Y-73587142D01*
X85891666Y-73444285D01*
X85891666Y-73301428D01*
X85844047Y-73158571D01*
X85748809Y-73087142D01*
X85510714Y-73087142D01*
X85415476Y-73015714D01*
X84939285Y-72658571D02*
X84939285Y-73658571D01*
X84939285Y-72801428D02*
X84891666Y-72730000D01*
X84796428Y-72658571D01*
X84653571Y-72658571D01*
X84558333Y-72730000D01*
X84510714Y-72872857D01*
X84510714Y-73658571D01*
X83605952Y-73658571D02*
X83605952Y-72158571D01*
X83605952Y-73587142D02*
X83701190Y-73658571D01*
X83891666Y-73658571D01*
X83986904Y-73587142D01*
X84034523Y-73515714D01*
X84082142Y-73372857D01*
X84082142Y-72944285D01*
X84034523Y-72801428D01*
X83986904Y-72730000D01*
X83891666Y-72658571D01*
X83701190Y-72658571D01*
X83605952Y-72730000D01*
X82367857Y-73658571D02*
X82367857Y-72658571D01*
X82367857Y-72801428D02*
X82320238Y-72730000D01*
X82225000Y-72658571D01*
X82082142Y-72658571D01*
X81986904Y-72730000D01*
X81939285Y-72872857D01*
X81939285Y-73658571D01*
X81939285Y-72872857D02*
X81891666Y-72730000D01*
X81796428Y-72658571D01*
X81653571Y-72658571D01*
X81558333Y-72730000D01*
X81510714Y-72872857D01*
X81510714Y-73658571D01*
X80891666Y-73658571D02*
X80986904Y-73587142D01*
X81034523Y-73515714D01*
X81082142Y-73372857D01*
X81082142Y-72944285D01*
X81034523Y-72801428D01*
X80986904Y-72730000D01*
X80891666Y-72658571D01*
X80748809Y-72658571D01*
X80653571Y-72730000D01*
X80605952Y-72801428D01*
X80558333Y-72944285D01*
X80558333Y-73372857D01*
X80605952Y-73515714D01*
X80653571Y-73587142D01*
X80748809Y-73658571D01*
X80891666Y-73658571D01*
X79701190Y-73658571D02*
X79701190Y-72158571D01*
X79701190Y-73587142D02*
X79796428Y-73658571D01*
X79986904Y-73658571D01*
X80082142Y-73587142D01*
X80129761Y-73515714D01*
X80177380Y-73372857D01*
X80177380Y-72944285D01*
X80129761Y-72801428D01*
X80082142Y-72730000D01*
X79986904Y-72658571D01*
X79796428Y-72658571D01*
X79701190Y-72730000D01*
X79272619Y-73587142D02*
X79177380Y-73658571D01*
X78986904Y-73658571D01*
X78891666Y-73587142D01*
X78844047Y-73444285D01*
X78844047Y-73372857D01*
X78891666Y-73230000D01*
X78986904Y-73158571D01*
X79129761Y-73158571D01*
X79225000Y-73087142D01*
X79272619Y-72944285D01*
X79272619Y-72872857D01*
X79225000Y-72730000D01*
X79129761Y-72658571D01*
X78986904Y-72658571D01*
X78891666Y-72730000D01*
X93272619Y-76108571D02*
X93272619Y-74608571D01*
X93272619Y-75180000D02*
X93177380Y-75108571D01*
X92986904Y-75108571D01*
X92891666Y-75180000D01*
X92844047Y-75251428D01*
X92796428Y-75394285D01*
X92796428Y-75822857D01*
X92844047Y-75965714D01*
X92891666Y-76037142D01*
X92986904Y-76108571D01*
X93177380Y-76108571D01*
X93272619Y-76037142D01*
X92463095Y-75108571D02*
X92225000Y-76108571D01*
X91986904Y-75108571D02*
X92225000Y-76108571D01*
X92320238Y-76465714D01*
X92367857Y-76537142D01*
X92463095Y-76608571D01*
X90558333Y-74608571D02*
X90558333Y-75680000D01*
X90605952Y-75894285D01*
X90701190Y-76037142D01*
X90844047Y-76108571D01*
X90939285Y-76108571D01*
X88844047Y-76108571D02*
X89320238Y-76108571D01*
X89320238Y-74608571D01*
X88082142Y-76108571D02*
X88082142Y-75322857D01*
X88129761Y-75180000D01*
X88225000Y-75108571D01*
X88415476Y-75108571D01*
X88510714Y-75180000D01*
X88082142Y-76037142D02*
X88177380Y-76108571D01*
X88415476Y-76108571D01*
X88510714Y-76037142D01*
X88558333Y-75894285D01*
X88558333Y-75751428D01*
X88510714Y-75608571D01*
X88415476Y-75537142D01*
X88177380Y-75537142D01*
X88082142Y-75465714D01*
X87605952Y-75108571D02*
X87605952Y-76108571D01*
X87605952Y-75251428D02*
X87558333Y-75180000D01*
X87463095Y-75108571D01*
X87320238Y-75108571D01*
X87225000Y-75180000D01*
X87177380Y-75322857D01*
X87177380Y-76108571D01*
X86320238Y-76037142D02*
X86415476Y-76108571D01*
X86605952Y-76108571D01*
X86701190Y-76037142D01*
X86748809Y-75894285D01*
X86748809Y-75322857D01*
X86701190Y-75180000D01*
X86605952Y-75108571D01*
X86415476Y-75108571D01*
X86320238Y-75180000D01*
X86272619Y-75322857D01*
X86272619Y-75465714D01*
X86748809Y-75608571D01*
X85082142Y-76108571D02*
X85082142Y-74608571D01*
X84748809Y-75680000D01*
X84415476Y-74608571D01*
X84415476Y-76108571D01*
X83510714Y-76108571D02*
X83510714Y-75322857D01*
X83558333Y-75180000D01*
X83653571Y-75108571D01*
X83844047Y-75108571D01*
X83939285Y-75180000D01*
X83510714Y-76037142D02*
X83605952Y-76108571D01*
X83844047Y-76108571D01*
X83939285Y-76037142D01*
X83986904Y-75894285D01*
X83986904Y-75751428D01*
X83939285Y-75608571D01*
X83844047Y-75537142D01*
X83605952Y-75537142D01*
X83510714Y-75465714D01*
X83129761Y-75108571D02*
X82891666Y-76108571D01*
X82653571Y-75108571D02*
X82891666Y-76108571D01*
X82986904Y-76465714D01*
X83034523Y-76537142D01*
X83129761Y-76608571D01*
X81558333Y-74751428D02*
X81510714Y-74680000D01*
X81415476Y-74608571D01*
X81177380Y-74608571D01*
X81082142Y-74680000D01*
X81034523Y-74751428D01*
X80986904Y-74894285D01*
X80986904Y-75037142D01*
X81034523Y-75251428D01*
X81605952Y-76108571D01*
X80986904Y-76108571D01*
X80367857Y-74608571D02*
X80272619Y-74608571D01*
X80177380Y-74680000D01*
X80129761Y-74751428D01*
X80082142Y-74894285D01*
X80034523Y-75180000D01*
X80034523Y-75537142D01*
X80082142Y-75822857D01*
X80129761Y-75965714D01*
X80177380Y-76037142D01*
X80272619Y-76108571D01*
X80367857Y-76108571D01*
X80463095Y-76037142D01*
X80510714Y-75965714D01*
X80558333Y-75822857D01*
X80605952Y-75537142D01*
X80605952Y-75180000D01*
X80558333Y-74894285D01*
X80510714Y-74751428D01*
X80463095Y-74680000D01*
X80367857Y-74608571D01*
X79082142Y-76108571D02*
X79653571Y-76108571D01*
X79367857Y-76108571D02*
X79367857Y-74608571D01*
X79463095Y-74822857D01*
X79558333Y-74965714D01*
X79653571Y-75037142D01*
X78605952Y-76108571D02*
X78415476Y-76108571D01*
X78320238Y-76037142D01*
X78272619Y-75965714D01*
X78177380Y-75751428D01*
X78129761Y-75465714D01*
X78129761Y-74894285D01*
X78177380Y-74751428D01*
X78225000Y-74680000D01*
X78320238Y-74608571D01*
X78510714Y-74608571D01*
X78605952Y-74680000D01*
X78653571Y-74751428D01*
X78701190Y-74894285D01*
X78701190Y-75251428D01*
X78653571Y-75394285D01*
X78605952Y-75465714D01*
X78510714Y-75537142D01*
X78320238Y-75537142D01*
X78225000Y-75465714D01*
X78177380Y-75394285D01*
X78129761Y-75251428D01*
D11*
X144761904Y-73481428D02*
X145428571Y-73481428D01*
X145428571Y-74790952D02*
X145428571Y-72290952D01*
X144476190Y-72290952D01*
X143428571Y-74790952D02*
X143619047Y-74671904D01*
X143714285Y-74552857D01*
X143809523Y-74314761D01*
X143809523Y-73600476D01*
X143714285Y-73362380D01*
X143619047Y-73243333D01*
X143428571Y-73124285D01*
X143142857Y-73124285D01*
X142952380Y-73243333D01*
X142857142Y-73362380D01*
X142761904Y-73600476D01*
X142761904Y-74314761D01*
X142857142Y-74552857D01*
X142952380Y-74671904D01*
X143142857Y-74790952D01*
X143428571Y-74790952D01*
X141904761Y-74790952D02*
X141904761Y-73124285D01*
X141904761Y-73600476D02*
X141809523Y-73362380D01*
X141714285Y-73243333D01*
X141523809Y-73124285D01*
X141333333Y-73124285D01*
X139428571Y-73124285D02*
X138666666Y-73124285D01*
X139142857Y-72290952D02*
X139142857Y-74433809D01*
X139047619Y-74671904D01*
X138857142Y-74790952D01*
X138666666Y-74790952D01*
X138000000Y-74790952D02*
X138000000Y-72290952D01*
X137142857Y-74790952D02*
X137142857Y-73481428D01*
X137238095Y-73243333D01*
X137428571Y-73124285D01*
X137714285Y-73124285D01*
X137904761Y-73243333D01*
X138000000Y-73362380D01*
X135428571Y-74671904D02*
X135619047Y-74790952D01*
X136000000Y-74790952D01*
X136190476Y-74671904D01*
X136285714Y-74433809D01*
X136285714Y-73481428D01*
X136190476Y-73243333D01*
X136000000Y-73124285D01*
X135619047Y-73124285D01*
X135428571Y-73243333D01*
X135333333Y-73481428D01*
X135333333Y-73719523D01*
X136285714Y-73957619D01*
X133047619Y-74076666D02*
X132095238Y-74076666D01*
X133238095Y-74790952D02*
X132571428Y-72290952D01*
X131904761Y-74790952D01*
X130380952Y-74671904D02*
X130571428Y-74790952D01*
X130952380Y-74790952D01*
X131142857Y-74671904D01*
X131238095Y-74552857D01*
X131333333Y-74314761D01*
X131333333Y-73600476D01*
X131238095Y-73362380D01*
X131142857Y-73243333D01*
X130952380Y-73124285D01*
X130571428Y-73124285D01*
X130380952Y-73243333D01*
X129238095Y-74790952D02*
X129428571Y-74671904D01*
X129523809Y-74552857D01*
X129619047Y-74314761D01*
X129619047Y-73600476D01*
X129523809Y-73362380D01*
X129428571Y-73243333D01*
X129238095Y-73124285D01*
X128952380Y-73124285D01*
X128761904Y-73243333D01*
X128666666Y-73362380D01*
X128571428Y-73600476D01*
X128571428Y-74314761D01*
X128666666Y-74552857D01*
X128761904Y-74671904D01*
X128952380Y-74790952D01*
X129238095Y-74790952D01*
X127714285Y-74790952D02*
X127714285Y-73124285D01*
X127714285Y-73600476D02*
X127619047Y-73362380D01*
X127523809Y-73243333D01*
X127333333Y-73124285D01*
X127142857Y-73124285D01*
X126476190Y-73124285D02*
X126476190Y-74790952D01*
X126476190Y-73362380D02*
X126380952Y-73243333D01*
X126190476Y-73124285D01*
X125904761Y-73124285D01*
X125714285Y-73243333D01*
X125619047Y-73481428D01*
X125619047Y-74790952D01*
X122476190Y-73481428D02*
X122190476Y-73600476D01*
X122095238Y-73719523D01*
X122000000Y-73957619D01*
X122000000Y-74314761D01*
X122095238Y-74552857D01*
X122190476Y-74671904D01*
X122380952Y-74790952D01*
X123142857Y-74790952D01*
X123142857Y-72290952D01*
X122476190Y-72290952D01*
X122285714Y-72410000D01*
X122190476Y-72529047D01*
X122095238Y-72767142D01*
X122095238Y-73005238D01*
X122190476Y-73243333D01*
X122285714Y-73362380D01*
X122476190Y-73481428D01*
X123142857Y-73481428D01*
X120476190Y-73481428D02*
X120190476Y-73600476D01*
X120095238Y-73719523D01*
X120000000Y-73957619D01*
X120000000Y-74314761D01*
X120095238Y-74552857D01*
X120190476Y-74671904D01*
X120380952Y-74790952D01*
X121142857Y-74790952D01*
X121142857Y-72290952D01*
X120476190Y-72290952D01*
X120285714Y-72410000D01*
X120190476Y-72529047D01*
X120095238Y-72767142D01*
X120095238Y-73005238D01*
X120190476Y-73243333D01*
X120285714Y-73362380D01*
X120476190Y-73481428D01*
X121142857Y-73481428D01*
X118000000Y-74552857D02*
X118095238Y-74671904D01*
X118380952Y-74790952D01*
X118571428Y-74790952D01*
X118857142Y-74671904D01*
X119047619Y-74433809D01*
X119142857Y-74195714D01*
X119238095Y-73719523D01*
X119238095Y-73362380D01*
X119142857Y-72886190D01*
X119047619Y-72648095D01*
X118857142Y-72410000D01*
X118571428Y-72290952D01*
X118380952Y-72290952D01*
X118095238Y-72410000D01*
X118000000Y-72529047D01*
X115619047Y-74790952D02*
X115619047Y-72290952D01*
X114952380Y-74076666D01*
X114285714Y-72290952D01*
X114285714Y-74790952D01*
X113333333Y-74790952D02*
X113333333Y-73124285D01*
X113333333Y-72290952D02*
X113428571Y-72410000D01*
X113333333Y-72529047D01*
X113238095Y-72410000D01*
X113333333Y-72290952D01*
X113333333Y-72529047D01*
X111523809Y-74671904D02*
X111714285Y-74790952D01*
X112095238Y-74790952D01*
X112285714Y-74671904D01*
X112380952Y-74552857D01*
X112476190Y-74314761D01*
X112476190Y-73600476D01*
X112380952Y-73362380D01*
X112285714Y-73243333D01*
X112095238Y-73124285D01*
X111714285Y-73124285D01*
X111523809Y-73243333D01*
X110666666Y-74790952D02*
X110666666Y-73124285D01*
X110666666Y-73600476D02*
X110571428Y-73362380D01*
X110476190Y-73243333D01*
X110285714Y-73124285D01*
X110095238Y-73124285D01*
X109142857Y-74790952D02*
X109333333Y-74671904D01*
X109428571Y-74552857D01*
X109523809Y-74314761D01*
X109523809Y-73600476D01*
X109428571Y-73362380D01*
X109333333Y-73243333D01*
X109142857Y-73124285D01*
X108857142Y-73124285D01*
X108666666Y-73243333D01*
X108571428Y-73362380D01*
X108476190Y-73600476D01*
X108476190Y-74314761D01*
X108571428Y-74552857D01*
X108666666Y-74671904D01*
X108857142Y-74790952D01*
X109142857Y-74790952D01*
D13*
X152206428Y-71659523D02*
X152206428Y-67659523D01*
X151206428Y-70516666D01*
X150206428Y-67659523D01*
X150206428Y-71659523D01*
X147492142Y-68992857D02*
X147492142Y-71659523D01*
X148777857Y-68992857D02*
X148777857Y-71088095D01*
X148635000Y-71469047D01*
X148349285Y-71659523D01*
X147920714Y-71659523D01*
X147635000Y-71469047D01*
X147492142Y-71278571D01*
X146206428Y-71469047D02*
X145920714Y-71659523D01*
X145349285Y-71659523D01*
X145063571Y-71469047D01*
X144920714Y-71088095D01*
X144920714Y-70897619D01*
X145063571Y-70516666D01*
X145349285Y-70326190D01*
X145777857Y-70326190D01*
X146063571Y-70135714D01*
X146206428Y-69754761D01*
X146206428Y-69564285D01*
X146063571Y-69183333D01*
X145777857Y-68992857D01*
X145349285Y-68992857D01*
X145063571Y-69183333D01*
X143635000Y-71659523D02*
X143635000Y-68992857D01*
X143635000Y-67659523D02*
X143777857Y-67850000D01*
X143635000Y-68040476D01*
X143492142Y-67850000D01*
X143635000Y-67659523D01*
X143635000Y-68040476D01*
X140920714Y-71469047D02*
X141206428Y-71659523D01*
X141777857Y-71659523D01*
X142063571Y-71469047D01*
X142206428Y-71278571D01*
X142349285Y-70897619D01*
X142349285Y-69754761D01*
X142206428Y-69373809D01*
X142063571Y-69183333D01*
X141777857Y-68992857D01*
X141206428Y-68992857D01*
X140920714Y-69183333D01*
X138206428Y-67659523D02*
X139635000Y-67659523D01*
X139777857Y-69564285D01*
X139635000Y-69373809D01*
X139349285Y-69183333D01*
X138635000Y-69183333D01*
X138349285Y-69373809D01*
X138206428Y-69564285D01*
X138063571Y-69945238D01*
X138063571Y-70897619D01*
X138206428Y-71278571D01*
X138349285Y-71469047D01*
X138635000Y-71659523D01*
X139349285Y-71659523D01*
X139635000Y-71469047D01*
X139777857Y-71278571D01*
X137063571Y-71659523D02*
X135492142Y-68992857D01*
X137063571Y-68992857D02*
X135492142Y-71659523D01*
X134635000Y-71659523D02*
X133063571Y-68992857D01*
X134635000Y-68992857D02*
X133063571Y-71659523D01*
X132206428Y-71659523D02*
X130635000Y-68992857D01*
X132206428Y-68992857D02*
X130635000Y-71659523D01*
X127349285Y-71469047D02*
X126920714Y-71659523D01*
X126206428Y-71659523D01*
X125920714Y-71469047D01*
X125777857Y-71278571D01*
X125635000Y-70897619D01*
X125635000Y-70516666D01*
X125777857Y-70135714D01*
X125920714Y-69945238D01*
X126206428Y-69754761D01*
X126777857Y-69564285D01*
X127063571Y-69373809D01*
X127206428Y-69183333D01*
X127349285Y-68802380D01*
X127349285Y-68421428D01*
X127206428Y-68040476D01*
X127063571Y-67850000D01*
X126777857Y-67659523D01*
X126063571Y-67659523D01*
X125635000Y-67850000D01*
X124635000Y-68992857D02*
X123920714Y-71659523D01*
X123206428Y-68992857D02*
X123920714Y-71659523D01*
X124206428Y-72611904D01*
X124349285Y-72802380D01*
X124635000Y-72992857D01*
X122063571Y-68992857D02*
X122063571Y-71659523D01*
X122063571Y-69373809D02*
X121920714Y-69183333D01*
X121635000Y-68992857D01*
X121206428Y-68992857D01*
X120920714Y-69183333D01*
X120777857Y-69564285D01*
X120777857Y-71659523D01*
X119777857Y-68992857D02*
X118635000Y-68992857D01*
X119349285Y-67659523D02*
X119349285Y-71088095D01*
X119206428Y-71469047D01*
X118920714Y-71659523D01*
X118635000Y-71659523D01*
X117635000Y-71659523D02*
X117635000Y-67659523D01*
X116349285Y-71659523D02*
X116349285Y-69564285D01*
X116492142Y-69183333D01*
X116777857Y-68992857D01*
X117206428Y-68992857D01*
X117492142Y-69183333D01*
X117635000Y-69373809D01*
X113777857Y-71469047D02*
X114063571Y-71659523D01*
X114635000Y-71659523D01*
X114920714Y-71469047D01*
X115063571Y-71088095D01*
X115063571Y-69564285D01*
X114920714Y-69183333D01*
X114635000Y-68992857D01*
X114063571Y-68992857D01*
X113777857Y-69183333D01*
X113635000Y-69564285D01*
X113635000Y-69945238D01*
X115063571Y-70326190D01*
X112492142Y-71469047D02*
X112206428Y-71659523D01*
X111635000Y-71659523D01*
X111349285Y-71469047D01*
X111206428Y-71088095D01*
X111206428Y-70897619D01*
X111349285Y-70516666D01*
X111635000Y-70326190D01*
X112063571Y-70326190D01*
X112349285Y-70135714D01*
X112492142Y-69754761D01*
X112492142Y-69564285D01*
X112349285Y-69183333D01*
X112063571Y-68992857D01*
X111635000Y-68992857D01*
X111349285Y-69183333D01*
X109920714Y-71659523D02*
X109920714Y-68992857D01*
X109920714Y-67659523D02*
X110063571Y-67850000D01*
X109920714Y-68040476D01*
X109777857Y-67850000D01*
X109920714Y-67659523D01*
X109920714Y-68040476D01*
X108635000Y-71469047D02*
X108349285Y-71659523D01*
X107777857Y-71659523D01*
X107492142Y-71469047D01*
X107349285Y-71088095D01*
X107349285Y-70897619D01*
X107492142Y-70516666D01*
X107777857Y-70326190D01*
X108206428Y-70326190D01*
X108492142Y-70135714D01*
X108635000Y-69754761D01*
X108635000Y-69564285D01*
X108492142Y-69183333D01*
X108206428Y-68992857D01*
X107777857Y-68992857D01*
X107492142Y-69183333D01*
X104920714Y-71469047D02*
X105206428Y-71659523D01*
X105777857Y-71659523D01*
X106063571Y-71469047D01*
X106206428Y-71088095D01*
X106206428Y-69564285D01*
X106063571Y-69183333D01*
X105777857Y-68992857D01*
X105206428Y-68992857D01*
X104920714Y-69183333D01*
X104777857Y-69564285D01*
X104777857Y-69945238D01*
X106206428Y-70326190D01*
X103492142Y-71659523D02*
X103492142Y-68992857D01*
X103492142Y-69754761D02*
X103349285Y-69373809D01*
X103206428Y-69183333D01*
X102920714Y-68992857D01*
X102635000Y-68992857D01*
D11*
X28272380Y-146792142D02*
X27510476Y-146792142D01*
X27891428Y-147363571D02*
X27891428Y-146220714D01*
X26510476Y-147363571D02*
X27081904Y-147363571D01*
X26796190Y-147363571D02*
X26796190Y-145863571D01*
X26891428Y-146077857D01*
X26986666Y-146220714D01*
X27081904Y-146292142D01*
X25605714Y-145863571D02*
X26081904Y-145863571D01*
X26129523Y-146577857D01*
X26081904Y-146506428D01*
X25986666Y-146435000D01*
X25748571Y-146435000D01*
X25653333Y-146506428D01*
X25605714Y-146577857D01*
X25558095Y-146720714D01*
X25558095Y-147077857D01*
X25605714Y-147220714D01*
X25653333Y-147292142D01*
X25748571Y-147363571D01*
X25986666Y-147363571D01*
X26081904Y-147292142D01*
X26129523Y-147220714D01*
X25272380Y-145863571D02*
X24939047Y-147363571D01*
X24605714Y-145863571D01*
X15891428Y-146792142D02*
X15129523Y-146792142D01*
X14129523Y-147363571D02*
X14700952Y-147363571D01*
X14415238Y-147363571D02*
X14415238Y-145863571D01*
X14510476Y-146077857D01*
X14605714Y-146220714D01*
X14700952Y-146292142D01*
X13224761Y-145863571D02*
X13700952Y-145863571D01*
X13748571Y-146577857D01*
X13700952Y-146506428D01*
X13605714Y-146435000D01*
X13367619Y-146435000D01*
X13272380Y-146506428D01*
X13224761Y-146577857D01*
X13177142Y-146720714D01*
X13177142Y-147077857D01*
X13224761Y-147220714D01*
X13272380Y-147292142D01*
X13367619Y-147363571D01*
X13605714Y-147363571D01*
X13700952Y-147292142D01*
X13748571Y-147220714D01*
X12891428Y-145863571D02*
X12558095Y-147363571D01*
X12224761Y-145863571D01*
X5901428Y-79072857D02*
X5901428Y-79549047D01*
X5187142Y-79596666D01*
X5258571Y-79549047D01*
X5329999Y-79453809D01*
X5329999Y-79215714D01*
X5258571Y-79120476D01*
X5187142Y-79072857D01*
X5044285Y-79025238D01*
X4687142Y-79025238D01*
X4544285Y-79072857D01*
X4472857Y-79120476D01*
X4401428Y-79215714D01*
X4401428Y-79453809D01*
X4472857Y-79549047D01*
X4544285Y-79596666D01*
X5901428Y-78739523D02*
X4401428Y-78406190D01*
X5901428Y-78072857D01*
X5901428Y-71453809D02*
X5901428Y-71358571D01*
X5830000Y-71263333D01*
X5758571Y-71215714D01*
X5615714Y-71168095D01*
X5330000Y-71120476D01*
X4972857Y-71120476D01*
X4687142Y-71168095D01*
X4544285Y-71215714D01*
X4472857Y-71263333D01*
X4401428Y-71358571D01*
X4401428Y-71453809D01*
X4472857Y-71549047D01*
X4544285Y-71596666D01*
X4687142Y-71644285D01*
X4972857Y-71691904D01*
X5330000Y-71691904D01*
X5615714Y-71644285D01*
X5758571Y-71596666D01*
X5830000Y-71549047D01*
X5901428Y-71453809D01*
X5901428Y-70834761D02*
X4401428Y-70501428D01*
X5901428Y-70168095D01*
%LPC*%
D14*
X217170000Y-135890000D03*
X214630000Y-135890000D03*
X212090000Y-135890000D03*
D15*
X209550000Y-135890000D03*
D16*
X145415000Y-36830000D03*
D17*
X160655000Y-64770000D03*
X145415000Y-39370000D03*
X160655000Y-62230000D03*
X145415000Y-41910000D03*
X160655000Y-59690000D03*
X145415000Y-44450000D03*
X160655000Y-57150000D03*
X145415000Y-46990000D03*
X160655000Y-54610000D03*
X145415000Y-49530000D03*
X160655000Y-52070000D03*
X145415000Y-52070000D03*
X160655000Y-49530000D03*
X145415000Y-54610000D03*
X160655000Y-46990000D03*
X145415000Y-57150000D03*
X160655000Y-44450000D03*
X145415000Y-59690000D03*
X160655000Y-41910000D03*
X145415000Y-62230000D03*
X160655000Y-39370000D03*
X145415000Y-64770000D03*
X160655000Y-36830000D03*
D16*
X112395000Y-36830000D03*
D17*
X127635000Y-64770000D03*
X112395000Y-39370000D03*
X127635000Y-62230000D03*
X112395000Y-41910000D03*
X127635000Y-59690000D03*
X112395000Y-44450000D03*
X127635000Y-57150000D03*
X112395000Y-46990000D03*
X127635000Y-54610000D03*
X112395000Y-49530000D03*
X127635000Y-52070000D03*
X112395000Y-52070000D03*
X127635000Y-49530000D03*
X112395000Y-54610000D03*
X127635000Y-46990000D03*
X112395000Y-57150000D03*
X127635000Y-44450000D03*
X112395000Y-59690000D03*
X127635000Y-41910000D03*
X112395000Y-62230000D03*
X127635000Y-39370000D03*
X112395000Y-64770000D03*
X127635000Y-36830000D03*
D16*
X171450000Y-113030000D03*
D17*
X179070000Y-120650000D03*
X171450000Y-115570000D03*
X179070000Y-118110000D03*
X171450000Y-118110000D03*
X179070000Y-115570000D03*
X171450000Y-120650000D03*
X179070000Y-113030000D03*
D16*
X171450000Y-132080000D03*
D17*
X179070000Y-139700000D03*
X171450000Y-134620000D03*
X179070000Y-137160000D03*
X171450000Y-137160000D03*
X179070000Y-134620000D03*
X171450000Y-139700000D03*
X179070000Y-132080000D03*
X137795000Y-116840000D03*
X130175000Y-137160000D03*
X137795000Y-119380000D03*
X130175000Y-134620000D03*
X137795000Y-121920000D03*
X130175000Y-132080000D03*
X137795000Y-124460000D03*
X130175000Y-129540000D03*
X137795000Y-127000000D03*
X130175000Y-127000000D03*
X137795000Y-129540000D03*
X130175000Y-124460000D03*
X137795000Y-132080000D03*
X130175000Y-121920000D03*
X137795000Y-134620000D03*
X130175000Y-119380000D03*
X137795000Y-137160000D03*
D16*
X130175000Y-116840000D03*
X132715000Y-78740000D03*
D17*
X140335000Y-101600000D03*
X132715000Y-81280000D03*
X140335000Y-99060000D03*
X132715000Y-83820000D03*
X140335000Y-96520000D03*
X132715000Y-86360000D03*
X140335000Y-93980000D03*
X132715000Y-88900000D03*
X140335000Y-91440000D03*
X132715000Y-91440000D03*
X140335000Y-88900000D03*
X132715000Y-93980000D03*
X140335000Y-86360000D03*
X132715000Y-96520000D03*
X140335000Y-83820000D03*
X132715000Y-99060000D03*
X140335000Y-81280000D03*
X132715000Y-101600000D03*
X140335000Y-78740000D03*
D16*
X92075000Y-39370000D03*
D17*
X99695000Y-62230000D03*
X92075000Y-41910000D03*
X99695000Y-59690000D03*
X92075000Y-44450000D03*
X99695000Y-57150000D03*
X92075000Y-46990000D03*
X99695000Y-54610000D03*
X92075000Y-49530000D03*
X99695000Y-52070000D03*
X92075000Y-52070000D03*
X99695000Y-49530000D03*
X92075000Y-54610000D03*
X99695000Y-46990000D03*
X92075000Y-57150000D03*
X99695000Y-44450000D03*
X92075000Y-59690000D03*
X99695000Y-41910000D03*
X92075000Y-62230000D03*
X99695000Y-39370000D03*
D16*
X172720000Y-57150000D03*
D17*
X180340000Y-80010000D03*
X172720000Y-59690000D03*
X180340000Y-77470000D03*
X172720000Y-62230000D03*
X180340000Y-74930000D03*
X172720000Y-64770000D03*
X180340000Y-72390000D03*
X172720000Y-67310000D03*
X180340000Y-69850000D03*
X172720000Y-69850000D03*
X180340000Y-67310000D03*
X172720000Y-72390000D03*
X180340000Y-64770000D03*
X172720000Y-74930000D03*
X180340000Y-62230000D03*
X172720000Y-77470000D03*
X180340000Y-59690000D03*
X172720000Y-80010000D03*
X180340000Y-57150000D03*
D16*
X153035000Y-78740000D03*
D17*
X160655000Y-101600000D03*
X153035000Y-81280000D03*
X160655000Y-99060000D03*
X153035000Y-83820000D03*
X160655000Y-96520000D03*
X153035000Y-86360000D03*
X160655000Y-93980000D03*
X153035000Y-88900000D03*
X160655000Y-91440000D03*
X153035000Y-91440000D03*
X160655000Y-88900000D03*
X153035000Y-93980000D03*
X160655000Y-86360000D03*
X153035000Y-96520000D03*
X160655000Y-83820000D03*
X153035000Y-99060000D03*
X160655000Y-81280000D03*
X153035000Y-101600000D03*
X160655000Y-78740000D03*
D16*
X153035000Y-6350000D03*
D17*
X160655000Y-29210000D03*
X153035000Y-8890000D03*
X160655000Y-26670000D03*
X153035000Y-11430000D03*
X160655000Y-24130000D03*
X153035000Y-13970000D03*
X160655000Y-21590000D03*
X153035000Y-16510000D03*
X160655000Y-19050000D03*
X153035000Y-19050000D03*
X160655000Y-16510000D03*
X153035000Y-21590000D03*
X160655000Y-13970000D03*
X153035000Y-24130000D03*
X160655000Y-11430000D03*
X153035000Y-26670000D03*
X160655000Y-8890000D03*
X153035000Y-29210000D03*
X160655000Y-6350000D03*
D16*
X92075000Y-6350000D03*
D17*
X99695000Y-29210000D03*
X92075000Y-8890000D03*
X99695000Y-26670000D03*
X92075000Y-11430000D03*
X99695000Y-24130000D03*
X92075000Y-13970000D03*
X99695000Y-21590000D03*
X92075000Y-16510000D03*
X99695000Y-19050000D03*
X92075000Y-19050000D03*
X99695000Y-16510000D03*
X92075000Y-21590000D03*
X99695000Y-13970000D03*
X92075000Y-24130000D03*
X99695000Y-11430000D03*
X92075000Y-26670000D03*
X99695000Y-8890000D03*
X92075000Y-29210000D03*
X99695000Y-6350000D03*
D16*
X71755000Y-78740000D03*
D17*
X79375000Y-101600000D03*
X71755000Y-81280000D03*
X79375000Y-99060000D03*
X71755000Y-83820000D03*
X79375000Y-96520000D03*
X71755000Y-86360000D03*
X79375000Y-93980000D03*
X71755000Y-88900000D03*
X79375000Y-91440000D03*
X71755000Y-91440000D03*
X79375000Y-88900000D03*
X71755000Y-93980000D03*
X79375000Y-86360000D03*
X71755000Y-96520000D03*
X79375000Y-83820000D03*
X71755000Y-99060000D03*
X79375000Y-81280000D03*
X71755000Y-101600000D03*
X79375000Y-78740000D03*
D16*
X71755000Y-39370000D03*
D17*
X79375000Y-62230000D03*
X71755000Y-41910000D03*
X79375000Y-59690000D03*
X71755000Y-44450000D03*
X79375000Y-57150000D03*
X71755000Y-46990000D03*
X79375000Y-54610000D03*
X71755000Y-49530000D03*
X79375000Y-52070000D03*
X71755000Y-52070000D03*
X79375000Y-49530000D03*
X71755000Y-54610000D03*
X79375000Y-46990000D03*
X71755000Y-57150000D03*
X79375000Y-44450000D03*
X71755000Y-59690000D03*
X79375000Y-41910000D03*
X71755000Y-62230000D03*
X79375000Y-39370000D03*
D18*
X92075000Y-124460000D03*
D19*
X99695000Y-142240000D03*
X92075000Y-127000000D03*
X99695000Y-139700000D03*
X92075000Y-129540000D03*
X99695000Y-137160000D03*
X92075000Y-132080000D03*
X99695000Y-134620000D03*
X92075000Y-134620000D03*
X99695000Y-132080000D03*
X92075000Y-137160000D03*
X99695000Y-129540000D03*
X92075000Y-139700000D03*
X99695000Y-127000000D03*
X92075000Y-142240000D03*
X99695000Y-124460000D03*
D18*
X112395000Y-109220000D03*
D19*
X120015000Y-127000000D03*
X112395000Y-111760000D03*
X120015000Y-124460000D03*
X112395000Y-114300000D03*
X120015000Y-121920000D03*
X112395000Y-116840000D03*
X120015000Y-119380000D03*
X112395000Y-119380000D03*
X120015000Y-116840000D03*
X112395000Y-121920000D03*
X120015000Y-114300000D03*
X112395000Y-124460000D03*
X120015000Y-111760000D03*
X112395000Y-127000000D03*
X120015000Y-109220000D03*
D18*
X172720000Y-26670000D03*
D19*
X180340000Y-44450000D03*
X172720000Y-29210000D03*
X180340000Y-41910000D03*
X172720000Y-31750000D03*
X180340000Y-39370000D03*
X172720000Y-34290000D03*
X180340000Y-36830000D03*
X172720000Y-36830000D03*
X180340000Y-34290000D03*
X172720000Y-39370000D03*
X180340000Y-31750000D03*
X172720000Y-41910000D03*
X180340000Y-29210000D03*
X172720000Y-44450000D03*
X180340000Y-26670000D03*
D18*
X132715000Y-6350000D03*
D19*
X140335000Y-24130000D03*
X132715000Y-8890000D03*
X140335000Y-21590000D03*
X132715000Y-11430000D03*
X140335000Y-19050000D03*
X132715000Y-13970000D03*
X140335000Y-16510000D03*
X132715000Y-16510000D03*
X140335000Y-13970000D03*
X132715000Y-19050000D03*
X140335000Y-11430000D03*
X132715000Y-21590000D03*
X140335000Y-8890000D03*
X132715000Y-24130000D03*
X140335000Y-6350000D03*
D18*
X112395000Y-78740000D03*
D19*
X120015000Y-96520000D03*
X112395000Y-81280000D03*
X120015000Y-93980000D03*
X112395000Y-83820000D03*
X120015000Y-91440000D03*
X112395000Y-86360000D03*
X120015000Y-88900000D03*
X112395000Y-88900000D03*
X120015000Y-86360000D03*
X112395000Y-91440000D03*
X120015000Y-83820000D03*
X112395000Y-93980000D03*
X120015000Y-81280000D03*
X112395000Y-96520000D03*
X120015000Y-78740000D03*
D18*
X112395000Y-6350000D03*
D19*
X120015000Y-24130000D03*
X112395000Y-8890000D03*
X120015000Y-21590000D03*
X112395000Y-11430000D03*
X120015000Y-19050000D03*
X112395000Y-13970000D03*
X120015000Y-16510000D03*
X112395000Y-16510000D03*
X120015000Y-13970000D03*
X112395000Y-19050000D03*
X120015000Y-11430000D03*
X112395000Y-21590000D03*
X120015000Y-8890000D03*
X112395000Y-24130000D03*
X120015000Y-6350000D03*
D18*
X92075000Y-101600000D03*
D19*
X99695000Y-119380000D03*
X92075000Y-104140000D03*
X99695000Y-116840000D03*
X92075000Y-106680000D03*
X99695000Y-114300000D03*
X92075000Y-109220000D03*
X99695000Y-111760000D03*
X92075000Y-111760000D03*
X99695000Y-109220000D03*
X92075000Y-114300000D03*
X99695000Y-106680000D03*
X92075000Y-116840000D03*
X99695000Y-104140000D03*
X92075000Y-119380000D03*
X99695000Y-101600000D03*
D18*
X92075000Y-78740000D03*
D19*
X99695000Y-96520000D03*
X92075000Y-81280000D03*
X99695000Y-93980000D03*
X92075000Y-83820000D03*
X99695000Y-91440000D03*
X92075000Y-86360000D03*
X99695000Y-88900000D03*
X92075000Y-88900000D03*
X99695000Y-86360000D03*
X92075000Y-91440000D03*
X99695000Y-83820000D03*
X92075000Y-93980000D03*
X99695000Y-81280000D03*
X92075000Y-96520000D03*
X99695000Y-78740000D03*
D18*
X71755000Y-6350000D03*
D19*
X79375000Y-24130000D03*
X71755000Y-8890000D03*
X79375000Y-21590000D03*
X71755000Y-11430000D03*
X79375000Y-19050000D03*
X71755000Y-13970000D03*
X79375000Y-16510000D03*
X71755000Y-16510000D03*
X79375000Y-13970000D03*
X71755000Y-19050000D03*
X79375000Y-11430000D03*
X71755000Y-21590000D03*
X79375000Y-8890000D03*
X71755000Y-24130000D03*
X79375000Y-6350000D03*
D18*
X51435000Y-104140000D03*
D19*
X59055000Y-121920000D03*
X51435000Y-106680000D03*
X59055000Y-119380000D03*
X51435000Y-109220000D03*
X59055000Y-116840000D03*
X51435000Y-111760000D03*
X59055000Y-114300000D03*
X51435000Y-114300000D03*
X59055000Y-111760000D03*
X51435000Y-116840000D03*
X59055000Y-109220000D03*
X51435000Y-119380000D03*
X59055000Y-106680000D03*
X51435000Y-121920000D03*
X59055000Y-104140000D03*
D18*
X51435000Y-6350000D03*
D19*
X59055000Y-24130000D03*
X51435000Y-8890000D03*
X59055000Y-21590000D03*
X51435000Y-11430000D03*
X59055000Y-19050000D03*
X51435000Y-13970000D03*
X59055000Y-16510000D03*
X51435000Y-16510000D03*
X59055000Y-13970000D03*
X51435000Y-19050000D03*
X59055000Y-11430000D03*
X51435000Y-21590000D03*
X59055000Y-8890000D03*
X51435000Y-24130000D03*
X59055000Y-6350000D03*
D17*
X203200000Y-29210000D03*
X195580000Y-44450000D03*
X203200000Y-31750000D03*
X195580000Y-41910000D03*
X203200000Y-34290000D03*
X195580000Y-39370000D03*
X203200000Y-36830000D03*
X195580000Y-36830000D03*
X203200000Y-39370000D03*
X195580000Y-34290000D03*
X203200000Y-41910000D03*
X195580000Y-31750000D03*
X203200000Y-44450000D03*
D16*
X195580000Y-29210000D03*
D17*
X203200000Y-6350000D03*
X195580000Y-21590000D03*
X203200000Y-8890000D03*
X195580000Y-19050000D03*
X203200000Y-11430000D03*
X195580000Y-16510000D03*
X203200000Y-13970000D03*
X195580000Y-13970000D03*
X203200000Y-16510000D03*
X195580000Y-11430000D03*
X203200000Y-19050000D03*
X195580000Y-8890000D03*
X203200000Y-21590000D03*
D16*
X195580000Y-6350000D03*
D17*
X180340000Y-85090000D03*
X172720000Y-100330000D03*
X180340000Y-87630000D03*
X172720000Y-97790000D03*
X180340000Y-90170000D03*
X172720000Y-95250000D03*
X180340000Y-92710000D03*
X172720000Y-92710000D03*
X180340000Y-95250000D03*
X172720000Y-90170000D03*
X180340000Y-97790000D03*
X172720000Y-87630000D03*
X180340000Y-100330000D03*
D16*
X172720000Y-85090000D03*
D17*
X180340000Y-6350000D03*
X172720000Y-21590000D03*
X180340000Y-8890000D03*
X172720000Y-19050000D03*
X180340000Y-11430000D03*
X172720000Y-16510000D03*
X180340000Y-13970000D03*
X172720000Y-13970000D03*
X180340000Y-16510000D03*
X172720000Y-11430000D03*
X180340000Y-19050000D03*
X172720000Y-8890000D03*
X180340000Y-21590000D03*
D16*
X172720000Y-6350000D03*
D17*
X79375000Y-127000000D03*
X71755000Y-142240000D03*
X79375000Y-129540000D03*
X71755000Y-139700000D03*
X79375000Y-132080000D03*
X71755000Y-137160000D03*
X79375000Y-134620000D03*
X71755000Y-134620000D03*
X79375000Y-137160000D03*
X71755000Y-132080000D03*
X79375000Y-139700000D03*
X71755000Y-129540000D03*
X79375000Y-142240000D03*
D16*
X71755000Y-127000000D03*
D17*
X79375000Y-106680000D03*
X71755000Y-121920000D03*
X79375000Y-109220000D03*
X71755000Y-119380000D03*
X79375000Y-111760000D03*
X71755000Y-116840000D03*
X79375000Y-114300000D03*
X71755000Y-114300000D03*
X79375000Y-116840000D03*
X71755000Y-111760000D03*
X79375000Y-119380000D03*
X71755000Y-109220000D03*
X79375000Y-121920000D03*
D16*
X71755000Y-106680000D03*
D17*
X59055000Y-83820000D03*
X51435000Y-99060000D03*
X59055000Y-86360000D03*
X51435000Y-96520000D03*
X59055000Y-88900000D03*
X51435000Y-93980000D03*
X59055000Y-91440000D03*
X51435000Y-91440000D03*
X59055000Y-93980000D03*
X51435000Y-88900000D03*
X59055000Y-96520000D03*
X51435000Y-86360000D03*
X59055000Y-99060000D03*
D16*
X51435000Y-83820000D03*
D17*
X59055000Y-52705000D03*
X51435000Y-67945000D03*
X59055000Y-55245000D03*
X51435000Y-65405000D03*
X59055000Y-57785000D03*
X51435000Y-62865000D03*
X59055000Y-60325000D03*
X51435000Y-60325000D03*
X59055000Y-62865000D03*
X51435000Y-57785000D03*
X59055000Y-65405000D03*
X51435000Y-55245000D03*
X59055000Y-67945000D03*
D16*
X51435000Y-52705000D03*
D17*
X59055000Y-31750000D03*
X51435000Y-46990000D03*
X59055000Y-34290000D03*
X51435000Y-44450000D03*
X59055000Y-36830000D03*
X51435000Y-41910000D03*
X59055000Y-39370000D03*
X51435000Y-39370000D03*
X59055000Y-41910000D03*
X51435000Y-36830000D03*
X59055000Y-44450000D03*
X51435000Y-34290000D03*
X59055000Y-46990000D03*
D16*
X51435000Y-31750000D03*
D17*
X38735000Y-83820000D03*
X31115000Y-99060000D03*
X38735000Y-86360000D03*
X31115000Y-96520000D03*
X38735000Y-88900000D03*
X31115000Y-93980000D03*
X38735000Y-91440000D03*
X31115000Y-91440000D03*
X38735000Y-93980000D03*
X31115000Y-88900000D03*
X38735000Y-96520000D03*
X31115000Y-86360000D03*
X38735000Y-99060000D03*
D16*
X31115000Y-83820000D03*
D17*
X38735000Y-52705000D03*
X31115000Y-67945000D03*
X38735000Y-55245000D03*
X31115000Y-65405000D03*
X38735000Y-57785000D03*
X31115000Y-62865000D03*
X38735000Y-60325000D03*
X31115000Y-60325000D03*
X38735000Y-62865000D03*
X31115000Y-57785000D03*
X38735000Y-65405000D03*
X31115000Y-55245000D03*
X38735000Y-67945000D03*
D16*
X31115000Y-52705000D03*
D17*
X38735000Y-31750000D03*
X31115000Y-46990000D03*
X38735000Y-34290000D03*
X31115000Y-44450000D03*
X38735000Y-36830000D03*
X31115000Y-41910000D03*
X38735000Y-39370000D03*
X31115000Y-39370000D03*
X38735000Y-41910000D03*
X31115000Y-36830000D03*
X38735000Y-44450000D03*
X31115000Y-34290000D03*
X38735000Y-46990000D03*
D16*
X31115000Y-31750000D03*
D17*
X38735000Y-6350000D03*
X31115000Y-21590000D03*
X38735000Y-8890000D03*
X31115000Y-19050000D03*
X38735000Y-11430000D03*
X31115000Y-16510000D03*
X38735000Y-13970000D03*
X31115000Y-13970000D03*
X38735000Y-16510000D03*
X31115000Y-11430000D03*
X38735000Y-19050000D03*
X31115000Y-8890000D03*
X38735000Y-21590000D03*
D16*
X31115000Y-6350000D03*
D15*
X22540000Y-145000000D03*
D14*
X20000000Y-145000000D03*
X17460000Y-145000000D03*
D15*
X17460000Y-5000000D03*
D14*
X20000000Y-5000000D03*
X22540000Y-5000000D03*
D20*
X5000000Y-76270000D03*
D21*
X5000000Y-73730000D03*
D20*
X60325000Y-76200000D03*
D21*
X60325000Y-73660000D03*
D22*
X21590000Y-76835000D03*
X21590000Y-74295000D03*
D23*
X21590000Y-71755000D03*
D24*
X12185000Y-38100000D03*
D25*
X19685000Y-38100000D03*
D26*
X212725000Y-36830000D03*
X212725000Y-39370000D03*
X212725000Y-41910000D03*
D27*
X203730000Y-54680000D03*
D28*
X206270000Y-54680000D03*
X203730000Y-57220000D03*
X206270000Y-57220000D03*
X203730000Y-59760000D03*
X206270000Y-59760000D03*
X203730000Y-62300000D03*
X206270000Y-62300000D03*
X203730000Y-64840000D03*
X206270000Y-64840000D03*
X203730000Y-67380000D03*
X206270000Y-67380000D03*
X203730000Y-69920000D03*
X206270000Y-69920000D03*
X203730000Y-72460000D03*
X206270000Y-72460000D03*
X203730000Y-75000000D03*
X206270000Y-75000000D03*
X203730000Y-77540000D03*
X206270000Y-77540000D03*
X203730000Y-80080000D03*
X206270000Y-80080000D03*
X203730000Y-82620000D03*
X206270000Y-82620000D03*
X203730000Y-85160000D03*
X206270000Y-85160000D03*
X203730000Y-87700000D03*
X206270000Y-87700000D03*
X203730000Y-90240000D03*
X206270000Y-90240000D03*
X203730000Y-92780000D03*
X206270000Y-92780000D03*
X203730000Y-95320000D03*
X206270000Y-95320000D03*
D29*
X125000000Y-145000000D03*
D30*
X147574000Y-121920000D03*
X147574000Y-111760000D03*
X167005000Y-125730000D03*
X162005000Y-125730000D03*
X159084000Y-125730000D03*
X154084000Y-125730000D03*
X151130000Y-125730000D03*
X146130000Y-125730000D03*
D31*
X217800000Y-120300000D03*
X217800000Y-129700000D03*
X210200000Y-120300000D03*
X210200000Y-129700000D03*
X214000000Y-120300000D03*
X214000000Y-129700000D03*
D14*
X217170000Y-113030000D03*
X214630000Y-113030000D03*
X212090000Y-113030000D03*
D15*
X209550000Y-113030000D03*
D30*
X196135000Y-125730000D03*
X191135000Y-125730000D03*
X184785000Y-111760000D03*
X184785000Y-121920000D03*
X200660000Y-111760000D03*
X200660000Y-121920000D03*
X203835000Y-121920000D03*
X203835000Y-111760000D03*
X197485000Y-121920000D03*
X197485000Y-111760000D03*
X187960000Y-111760000D03*
X187960000Y-121920000D03*
X194310000Y-111760000D03*
X194310000Y-121920000D03*
X191135000Y-121920000D03*
X191135000Y-111760000D03*
X194310000Y-140970000D03*
X194310000Y-130810000D03*
X187960000Y-144780000D03*
X182960000Y-144780000D03*
D27*
X213730000Y-54680000D03*
D28*
X216270000Y-54680000D03*
X213730000Y-57220000D03*
X216270000Y-57220000D03*
X213730000Y-59760000D03*
X216270000Y-59760000D03*
X213730000Y-62300000D03*
X216270000Y-62300000D03*
X213730000Y-64840000D03*
X216270000Y-64840000D03*
X213730000Y-67380000D03*
X216270000Y-67380000D03*
X213730000Y-69920000D03*
X216270000Y-69920000D03*
X213730000Y-72460000D03*
X216270000Y-72460000D03*
X213730000Y-75000000D03*
X216270000Y-75000000D03*
X213730000Y-77540000D03*
X216270000Y-77540000D03*
X213730000Y-80080000D03*
X216270000Y-80080000D03*
X213730000Y-82620000D03*
X216270000Y-82620000D03*
X213730000Y-85160000D03*
X216270000Y-85160000D03*
X213730000Y-87700000D03*
X216270000Y-87700000D03*
X213730000Y-90240000D03*
X216270000Y-90240000D03*
X213730000Y-92780000D03*
X216270000Y-92780000D03*
X213730000Y-95320000D03*
X216270000Y-95320000D03*
D30*
X47625000Y-119460000D03*
X47625000Y-124460000D03*
X188595000Y-39370000D03*
X188595000Y-44370000D03*
D32*
X19685000Y-97790000D03*
D33*
X19685000Y-87630000D03*
D32*
X19685000Y-107950000D03*
D33*
X19685000Y-118110000D03*
D34*
X5000000Y-136270000D03*
D35*
X5000000Y-133730000D03*
D30*
X26670000Y-127635000D03*
X16510000Y-127635000D03*
D36*
X194310000Y-99695000D03*
X191770000Y-99695000D03*
X189230000Y-99695000D03*
D37*
X212725000Y-26670000D03*
D38*
X212725000Y-16510000D03*
D30*
X154940000Y-144780000D03*
X149940000Y-144780000D03*
X147320000Y-140970000D03*
X147320000Y-130810000D03*
X139700000Y-62230000D03*
X139700000Y-52070000D03*
X166624000Y-121920000D03*
X166624000Y-111760000D03*
X163449000Y-111760000D03*
X163449000Y-121920000D03*
X160274000Y-111760000D03*
X160274000Y-121920000D03*
X157099000Y-111760000D03*
X157099000Y-121920000D03*
X153924000Y-111760000D03*
X153924000Y-121920000D03*
X203835000Y-140970000D03*
X203835000Y-130810000D03*
X200660000Y-130810000D03*
X200660000Y-140970000D03*
X197485000Y-130810000D03*
X197485000Y-140970000D03*
X191135000Y-140970000D03*
X191135000Y-130810000D03*
X187960000Y-130810000D03*
X187960000Y-140970000D03*
X184785000Y-130810000D03*
X184785000Y-140970000D03*
X166370000Y-140970000D03*
X166370000Y-130810000D03*
X163195000Y-130810000D03*
X163195000Y-140970000D03*
X160020000Y-130810000D03*
X160020000Y-140970000D03*
X156845000Y-130810000D03*
X156845000Y-140970000D03*
X153670000Y-130810000D03*
X153670000Y-140970000D03*
X150495000Y-140970000D03*
X150495000Y-130810000D03*
X144145000Y-140970000D03*
X144145000Y-130810000D03*
X35560000Y-113665000D03*
X35560000Y-123825000D03*
X31115000Y-123825000D03*
X31115000Y-113665000D03*
X64770000Y-132080000D03*
X64770000Y-142240000D03*
X139700000Y-36830000D03*
X139700000Y-46990000D03*
X188595000Y-26670000D03*
X188595000Y-36830000D03*
X166751000Y-41910000D03*
X166751000Y-31750000D03*
X51435000Y-132080000D03*
X51435000Y-142240000D03*
D39*
X33655000Y-130175000D03*
D30*
X33655000Y-132675000D03*
D40*
X40640000Y-121920000D03*
X40640000Y-117040000D03*
D30*
X40640000Y-138470000D03*
X40640000Y-140970000D03*
X40640000Y-132080000D03*
X40640000Y-134580000D03*
X49530000Y-76200000D03*
X49530000Y-73700000D03*
X40640000Y-109220000D03*
X40640000Y-111720000D03*
X21550000Y-26670000D03*
X19050000Y-26670000D03*
X11470000Y-26670000D03*
X13970000Y-26670000D03*
X10795000Y-66040000D03*
X20955000Y-66040000D03*
D39*
X33655000Y-138430000D03*
D30*
X33655000Y-140930000D03*
D39*
X38735000Y-76200000D03*
D30*
X38735000Y-73700000D03*
D39*
X13970000Y-71795000D03*
D30*
X13970000Y-74295000D03*
D41*
X15000000Y-115000000D03*
D42*
X15000000Y-112460000D03*
X15000000Y-109920000D03*
D41*
X15000000Y-95000000D03*
D42*
X15000000Y-92460000D03*
X15000000Y-89920000D03*
D32*
X19050000Y-12700000D03*
D33*
X19050000Y-22860000D03*
D32*
X24130000Y-22860000D03*
D33*
X24130000Y-12700000D03*
D32*
X13970000Y-12700000D03*
D33*
X13970000Y-22860000D03*
D32*
X8890000Y-22860000D03*
D33*
X8890000Y-12700000D03*
D30*
X109855000Y-146605000D03*
X109855000Y-141605000D03*
X114300000Y-141605000D03*
X114300000Y-146605000D03*
X177800000Y-104775000D03*
X172800000Y-104775000D03*
X200580000Y-25400000D03*
X195580000Y-25400000D03*
X177800000Y-49530000D03*
X172800000Y-49530000D03*
X160655000Y-74215000D03*
X160655000Y-69215000D03*
X137715000Y-29210000D03*
X132715000Y-29210000D03*
X117395000Y-100965000D03*
X112395000Y-100965000D03*
X117475000Y-29210000D03*
X112475000Y-29210000D03*
X104775000Y-122094000D03*
X104775000Y-117094000D03*
X64770000Y-127635000D03*
X64770000Y-122635000D03*
X76835000Y-29210000D03*
X71835000Y-29210000D03*
X56515000Y-127000000D03*
X51515000Y-127000000D03*
X45720000Y-52070000D03*
X45720000Y-47070000D03*
X36195000Y-104140000D03*
X31195000Y-104140000D03*
X36115000Y-26670000D03*
X31115000Y-26670000D03*
X204390000Y-125730000D03*
X199390000Y-125730000D03*
X187960000Y-125730000D03*
X182960000Y-125730000D03*
X196135000Y-144780000D03*
X191135000Y-144780000D03*
X204390000Y-144780000D03*
X199390000Y-144780000D03*
X171370000Y-144780000D03*
X166370000Y-144780000D03*
X158195000Y-144780000D03*
X163195000Y-144780000D03*
X146685000Y-144780000D03*
X141685000Y-144780000D03*
X36195000Y-109220000D03*
X31195000Y-109220000D03*
X55880000Y-142240000D03*
X60880000Y-142240000D03*
D39*
X150749000Y-121920000D03*
D30*
X150749000Y-111760000D03*
D24*
X12185000Y-55245000D03*
D25*
X19685000Y-55245000D03*
D29*
X215000000Y-145000000D03*
X5000000Y-145000000D03*
X215000000Y-5000000D03*
X5000000Y-5000000D03*
D37*
X166370000Y-52070000D03*
X166370000Y-54610000D03*
X166370000Y-57150000D03*
X166370000Y-59690000D03*
X166370000Y-62230000D03*
X166370000Y-64770000D03*
X166370000Y-67310000D03*
X166370000Y-69850000D03*
D43*
X166370000Y-72390000D03*
D44*
X59055000Y-132715000D03*
D45*
X56515000Y-132715000D03*
M02*
