M48
; DRILL file {KiCad 5.1.4-5.1.4} date Tue 13 Aug 2019 11:30:26 BST
; FORMAT={-:-/ absolute / metric / decimal}
; #@! TF.CreationDate,2019-08-13T11:30:26+01:00
; #@! TF.GenerationSoftware,Kicad,Pcbnew,5.1.4-5.1.4
FMAT,2
METRIC
T1C0.400
T2C0.500
T3C0.800
T4C0.900
T5C1.000
T6C1.016
T7C1.100
T8C1.200
T9C1.300
T10C3.500
%
G90
G05
T1
X26.67Y-34.29
X26.67Y-36.83
X26.67Y-57.785
X26.67Y-60.325
X27.94Y-52.705
X28.575Y-38.1
X28.575Y-80.048
X28.575Y-119.38
X29.21Y-87.63
X29.21Y-118.11
X33.02Y-118.11
X38.735Y-27.94
X41.275Y-100.33
X41.91Y-41.275
X41.91Y-57.785
X43.18Y-20.32
X44.45Y-22.86
X44.45Y-29.845
X44.45Y-122.555
X45.085Y-66.675
X45.085Y-91.44
X45.085Y-99.06
X45.72Y-26.035
X45.72Y-36.83
X45.72Y-110.49
X46.355Y-93.98
X46.355Y-101.6
X47.625Y-62.865
X48.26Y-81.28
X48.26Y-132.08
X48.895Y-7.62
X48.895Y-45.72
X48.895Y-49.53
X49.53Y-38.1
X49.53Y-82.55
X49.53Y-97.79
X53.975Y-17.78
X60.96Y-20.32
X60.96Y-28.575
X60.96Y-95.25
X61.595Y-7.62
X61.595Y-59.055
X61.595Y-66.675
X61.595Y-116.84
X62.23Y-32.385
X62.23Y-50.8
X62.484Y-88.9
X62.865Y-2.54
X63.5Y-41.91
X63.5Y-114.935
X64.135Y-100.33
X64.77Y-86.36
X64.77Y-99.06
X65.405Y-63.5
X67.31Y-49.53
X67.945Y-33.02
X67.945Y-127.0
X69.215Y-10.16
X69.215Y-65.405
X69.215Y-85.09
X69.215Y-96.52
X69.215Y-104.14
X69.215Y-130.81
X71.12Y-33.02
X72.39Y-34.29
X74.295Y-20.32
X81.618Y-97.452
X81.915Y-7.62
X81.915Y-28.575
X81.915Y-39.37
X81.915Y-41.91
X82.55Y-66.04
X82.55Y-114.3
X82.55Y-116.84
X83.185Y-130.81
X83.693Y-12.446
X83.82Y-16.51
X84.455Y-34.925
X84.54Y-62.315
X84.709Y-50.8
X85.09Y-46.99
X85.09Y-64.77
X85.09Y-99.06
X85.725Y-33.655
X85.725Y-38.1
X85.725Y-45.72
X85.725Y-81.28
X86.36Y-41.91
X86.36Y-78.74
X86.36Y-101.6
X86.36Y-110.49
X86.36Y-120.65
X86.36Y-124.46
X86.614Y-37.211
X86.995Y-5.715
X86.995Y-88.9
X88.9Y-82.55
X89.535Y-2.54
X89.535Y-55.88
X90.17Y-60.96
X90.17Y-90.17
X101.6Y-17.78
X101.6Y-33.02
X101.854Y-83.82
X101.854Y-105.41
X102.235Y-10.16
X102.235Y-12.7
X102.235Y-15.24
X102.235Y-53.34
X102.235Y-107.95
X102.235Y-128.27
X102.87Y-81.28
X103.505Y-58.42
X103.505Y-133.35
X104.14Y-104.14
X104.775Y-88.9
X104.775Y-98.425
X104.775Y-105.41
X104.775Y-113.03
X104.775Y-135.89
X105.41Y-53.34
X105.41Y-55.88
X105.41Y-59.055
X105.41Y-86.36
X106.045Y-52.07
X106.045Y-85.09
X106.68Y-6.35
X106.68Y-23.495
X106.68Y-26.035
X106.68Y-99.06
X106.68Y-102.87
X106.68Y-113.03
X106.68Y-125.73
X107.315Y-92.71
X107.95Y-11.43
X107.95Y-111.76
X107.95Y-130.81
X108.585Y-93.98
X109.22Y-109.22
X109.22Y-129.54
X109.855Y-5.715
X109.855Y-64.77
X109.855Y-80.01
X109.855Y-82.55
X109.855Y-95.25
X110.49Y-106.68
X110.49Y-125.73
X113.665Y-132.08
X119.38Y-46.99
X119.38Y-66.04
X121.285Y-134.62
X121.92Y-36.83
X121.92Y-43.18
X121.92Y-76.835
X122.554Y-118.109
X122.555Y-104.14
X123.19Y-18.669
X123.19Y-45.72
X124.46Y-6.35
X124.46Y-21.59
X124.46Y-31.115
X124.46Y-48.26
X124.46Y-98.425
X125.095Y-86.36
X126.365Y-7.62
X126.365Y-21.59
X126.365Y-91.44
X126.365Y-113.03
X127.635Y-80.01
X127.635Y-90.17
X127.635Y-92.71
X128.27Y-81.28
X128.27Y-110.49
X130.175Y-97.79
X130.175Y-107.95
X130.81Y-85.09
X132.715Y-43.18
X140.97Y-59.69
X141.605Y-60.96
X142.24Y-62.23
X142.24Y-63.5
X142.875Y-82.55
X142.875Y-90.17
X142.875Y-92.71
X142.875Y-100.33
X144.145Y-5.08
X145.415Y-15.24
X145.415Y-24.765
X146.685Y-32.385
X147.955Y-34.925
X148.59Y-36.83
X149.225Y-10.16
X149.225Y-18.415
X151.13Y-22.86
X151.13Y-37.465
X153.205Y-37.635
X163.83Y-44.45
X163.83Y-80.01
X164.465Y-46.99
X164.465Y-100.33
X165.1Y-5.715
X165.1Y-19.05
X165.735Y-12.7
X165.735Y-29.21
X167.64Y-5.715
X167.64Y-15.875
X168.275Y-24.13
X168.91Y-13.97
X168.91Y-21.59
X169.545Y-11.43
X170.18Y-100.33
X170.815Y-78.74
X182.245Y-17.78
X182.245Y-63.5
X183.515Y-27.97
X184.15Y-23.495
X184.785Y-5.715
X184.785Y-13.97
X184.785Y-68.58
X186.055Y-15.875
X186.055Y-24.765
X186.055Y-33.655
X186.739Y-9.476
X188.595Y-49.016
X190.5Y-48.895
X191.135Y-41.91
X192.405Y-83.82
X194.24Y-82.62
X195.58Y-62.865
X196.85Y-81.28
X196.85Y-102.235
X198.755Y-102.235
X199.955Y-85.16
X200.66Y-102.235
X208.28Y-34.29
X214.63Y-31.75
T2
X33.655Y-72.39
X33.655Y-73.66
X48.895Y-129.54
X53.975Y-72.39
X53.975Y-73.66
X56.515Y-76.2
X56.515Y-77.47
X74.295Y-68.58
X74.295Y-69.85
X76.835Y-72.39
X76.835Y-73.66
X94.615Y-68.58
X94.615Y-69.85
X97.155Y-72.39
X97.155Y-73.66
X114.935Y-68.58
X114.935Y-69.85
X115.57Y-49.53
X117.475Y-72.39
X117.475Y-73.66
X118.11Y-39.37
X135.255Y-68.58
X135.255Y-69.85
X137.795Y-72.39
X137.795Y-73.66
X155.575Y-52.07
X155.575Y-66.04
X155.575Y-68.58
X155.575Y-69.85
X158.115Y-48.26
X158.115Y-72.39
X158.115Y-73.66
X175.895Y-29.21
T3
X104.775Y-117.094
X104.775Y-122.094
X31.115Y-83.82
X31.115Y-86.36
X31.115Y-88.9
X31.115Y-91.44
X31.115Y-93.98
X31.115Y-96.52
X31.115Y-99.06
X38.735Y-83.82
X38.735Y-86.36
X38.735Y-88.9
X38.735Y-91.44
X38.735Y-93.98
X38.735Y-96.52
X38.735Y-99.06
X163.449Y-111.76
X163.449Y-121.92
X153.67Y-130.81
X153.67Y-140.97
X144.145Y-130.81
X144.145Y-140.97
X158.195Y-144.78
X163.195Y-144.78
X31.195Y-104.14
X36.195Y-104.14
X147.574Y-111.76
X147.574Y-121.92
X141.685Y-144.78
X146.685Y-144.78
X194.31Y-130.81
X194.31Y-140.97
X114.3Y-141.605
X114.3Y-146.605
X139.7Y-52.07
X139.7Y-62.23
X212.725Y-16.51
X212.725Y-26.67
X10.795Y-66.04
X20.955Y-66.04
X92.075Y-124.46
X92.075Y-127.0
X92.075Y-129.54
X92.075Y-132.08
X92.075Y-134.62
X92.075Y-137.16
X92.075Y-139.7
X92.075Y-142.24
X99.695Y-124.46
X99.695Y-127.0
X99.695Y-129.54
X99.695Y-132.08
X99.695Y-134.62
X99.695Y-137.16
X99.695Y-139.7
X99.695Y-142.24
X184.785Y-111.76
X184.785Y-121.92
X163.195Y-130.81
X163.195Y-140.97
X187.96Y-130.81
X187.96Y-140.97
X153.924Y-111.76
X153.924Y-121.92
X187.96Y-111.76
X187.96Y-121.92
X51.435Y-31.75
X51.435Y-34.29
X51.435Y-36.83
X51.435Y-39.37
X51.435Y-41.91
X51.435Y-44.45
X51.435Y-46.99
X59.055Y-31.75
X59.055Y-34.29
X59.055Y-36.83
X59.055Y-39.37
X59.055Y-41.91
X59.055Y-44.45
X59.055Y-46.99
X35.56Y-113.665
X35.56Y-123.825
X172.72Y-85.09
X172.72Y-87.63
X172.72Y-90.17
X172.72Y-92.71
X172.72Y-95.25
X172.72Y-97.79
X172.72Y-100.33
X180.34Y-85.09
X180.34Y-87.63
X180.34Y-90.17
X180.34Y-92.71
X180.34Y-95.25
X180.34Y-97.79
X180.34Y-100.33
X156.845Y-130.81
X156.845Y-140.97
X51.435Y-6.35
X51.435Y-8.89
X51.435Y-11.43
X51.435Y-13.97
X51.435Y-16.51
X51.435Y-19.05
X51.435Y-21.59
X51.435Y-24.13
X59.055Y-6.35
X59.055Y-8.89
X59.055Y-11.43
X59.055Y-13.97
X59.055Y-16.51
X59.055Y-19.05
X59.055Y-21.59
X59.055Y-24.13
X166.37Y-52.07
X166.37Y-54.61
X166.37Y-57.15
X166.37Y-59.69
X166.37Y-62.23
X166.37Y-64.77
X166.37Y-67.31
X166.37Y-69.85
X166.37Y-72.39
X146.13Y-125.73
X151.13Y-125.73
X16.51Y-127.635
X26.67Y-127.635
X160.655Y-69.215
X160.655Y-74.215
X92.075Y-78.74
X92.075Y-81.28
X92.075Y-83.82
X92.075Y-86.36
X92.075Y-88.9
X92.075Y-91.44
X92.075Y-93.98
X92.075Y-96.52
X99.695Y-78.74
X99.695Y-81.28
X99.695Y-83.82
X99.695Y-86.36
X99.695Y-88.9
X99.695Y-91.44
X99.695Y-93.98
X99.695Y-96.52
X92.075Y-6.35
X92.075Y-8.89
X92.075Y-11.43
X92.075Y-13.97
X92.075Y-16.51
X92.075Y-19.05
X92.075Y-21.59
X92.075Y-24.13
X92.075Y-26.67
X92.075Y-29.21
X99.695Y-6.35
X99.695Y-8.89
X99.695Y-11.43
X99.695Y-13.97
X99.695Y-16.51
X99.695Y-19.05
X99.695Y-21.59
X99.695Y-24.13
X99.695Y-26.67
X99.695Y-29.21
X200.66Y-130.81
X200.66Y-140.97
X132.715Y-29.21
X137.715Y-29.21
X195.58Y-6.35
X195.58Y-8.89
X195.58Y-11.43
X195.58Y-13.97
X195.58Y-16.51
X195.58Y-19.05
X195.58Y-21.59
X203.2Y-6.35
X203.2Y-8.89
X203.2Y-11.43
X203.2Y-13.97
X203.2Y-16.51
X203.2Y-19.05
X203.2Y-21.59
X51.435Y-132.08
X51.435Y-142.24
X40.64Y-109.22
X40.64Y-111.72
X92.075Y-101.6
X92.075Y-104.14
X92.075Y-106.68
X92.075Y-109.22
X92.075Y-111.76
X92.075Y-114.3
X92.075Y-116.84
X92.075Y-119.38
X99.695Y-101.6
X99.695Y-104.14
X99.695Y-106.68
X99.695Y-109.22
X99.695Y-111.76
X99.695Y-114.3
X99.695Y-116.84
X99.695Y-119.38
X112.395Y-36.83
X112.395Y-39.37
X112.395Y-41.91
X112.395Y-44.45
X112.395Y-46.99
X112.395Y-49.53
X112.395Y-52.07
X112.395Y-54.61
X112.395Y-57.15
X112.395Y-59.69
X112.395Y-62.23
X112.395Y-64.77
X127.635Y-36.83
X127.635Y-39.37
X127.635Y-41.91
X127.635Y-44.45
X127.635Y-46.99
X127.635Y-49.53
X127.635Y-52.07
X127.635Y-54.61
X127.635Y-57.15
X127.635Y-59.69
X127.635Y-62.23
X127.635Y-64.77
X112.395Y-109.22
X112.395Y-111.76
X112.395Y-114.3
X112.395Y-116.84
X112.395Y-119.38
X112.395Y-121.92
X112.395Y-124.46
X112.395Y-127.0
X120.015Y-109.22
X120.015Y-111.76
X120.015Y-114.3
X120.015Y-116.84
X120.015Y-119.38
X120.015Y-121.92
X120.015Y-124.46
X120.015Y-127.0
X172.8Y-104.775
X177.8Y-104.775
X31.115Y-113.665
X31.115Y-123.825
X172.8Y-49.53
X177.8Y-49.53
X109.855Y-141.605
X109.855Y-146.605
X51.435Y-104.14
X51.435Y-106.68
X51.435Y-109.22
X51.435Y-111.76
X51.435Y-114.3
X51.435Y-116.84
X51.435Y-119.38
X51.435Y-121.92
X59.055Y-104.14
X59.055Y-106.68
X59.055Y-109.22
X59.055Y-111.76
X59.055Y-114.3
X59.055Y-116.84
X59.055Y-119.38
X59.055Y-121.92
X71.755Y-6.35
X71.755Y-8.89
X71.755Y-11.43
X71.755Y-13.97
X71.755Y-16.51
X71.755Y-19.05
X71.755Y-21.59
X71.755Y-24.13
X79.375Y-6.35
X79.375Y-8.89
X79.375Y-11.43
X79.375Y-13.97
X79.375Y-16.51
X79.375Y-19.05
X79.375Y-21.59
X79.375Y-24.13
X194.31Y-111.76
X194.31Y-121.92
X197.485Y-130.81
X197.485Y-140.97
X184.785Y-130.81
X184.785Y-140.97
X171.45Y-113.03
X171.45Y-115.57
X171.45Y-118.11
X171.45Y-120.65
X179.07Y-113.03
X179.07Y-115.57
X179.07Y-118.11
X179.07Y-120.65
X203.835Y-111.76
X203.835Y-121.92
X112.395Y-6.35
X112.395Y-8.89
X112.395Y-11.43
X112.395Y-13.97
X112.395Y-16.51
X112.395Y-19.05
X112.395Y-21.59
X112.395Y-24.13
X120.015Y-6.35
X120.015Y-8.89
X120.015Y-11.43
X120.015Y-13.97
X120.015Y-16.51
X120.015Y-19.05
X120.015Y-21.59
X120.015Y-24.13
X11.47Y-26.67
X13.97Y-26.67
X31.115Y-31.75
X31.115Y-34.29
X31.115Y-36.83
X31.115Y-39.37
X31.115Y-41.91
X31.115Y-44.45
X31.115Y-46.99
X38.735Y-31.75
X38.735Y-34.29
X38.735Y-36.83
X38.735Y-39.37
X38.735Y-41.91
X38.735Y-44.45
X38.735Y-46.99
X33.655Y-138.43
X33.655Y-140.93
X40.64Y-117.04
X40.64Y-121.92
X112.395Y-100.965
X117.395Y-100.965
X71.755Y-127.0
X71.755Y-129.54
X71.755Y-132.08
X71.755Y-134.62
X71.755Y-137.16
X71.755Y-139.7
X71.755Y-142.24
X79.375Y-127.0
X79.375Y-129.54
X79.375Y-132.08
X79.375Y-134.62
X79.375Y-137.16
X79.375Y-139.7
X79.375Y-142.24
X130.175Y-116.84
X130.175Y-119.38
X130.175Y-121.92
X130.175Y-124.46
X130.175Y-127.0
X130.175Y-129.54
X130.175Y-132.08
X130.175Y-134.62
X130.175Y-137.16
X137.795Y-116.84
X137.795Y-119.38
X137.795Y-121.92
X137.795Y-124.46
X137.795Y-127.0
X137.795Y-129.54
X137.795Y-132.08
X137.795Y-134.62
X137.795Y-137.16
X71.835Y-29.21
X76.835Y-29.21
X71.755Y-78.74
X71.755Y-81.28
X71.755Y-83.82
X71.755Y-86.36
X71.755Y-88.9
X71.755Y-91.44
X71.755Y-93.98
X71.755Y-96.52
X71.755Y-99.06
X71.755Y-101.6
X79.375Y-78.74
X79.375Y-81.28
X79.375Y-83.82
X79.375Y-86.36
X79.375Y-88.9
X79.375Y-91.44
X79.375Y-93.98
X79.375Y-96.52
X79.375Y-99.06
X79.375Y-101.6
X49.53Y-73.7
X49.53Y-76.2
X112.475Y-29.21
X117.475Y-29.21
X150.749Y-111.76
X150.749Y-121.92
X112.395Y-78.74
X112.395Y-81.28
X112.395Y-83.82
X112.395Y-86.36
X112.395Y-88.9
X112.395Y-91.44
X112.395Y-93.98
X112.395Y-96.52
X120.015Y-78.74
X120.015Y-81.28
X120.015Y-83.82
X120.015Y-86.36
X120.015Y-88.9
X120.015Y-91.44
X120.015Y-93.98
X120.015Y-96.52
X200.66Y-111.76
X200.66Y-121.92
X132.715Y-6.35
X132.715Y-8.89
X132.715Y-11.43
X132.715Y-13.97
X132.715Y-16.51
X132.715Y-19.05
X132.715Y-21.59
X132.715Y-24.13
X140.335Y-6.35
X140.335Y-8.89
X140.335Y-11.43
X140.335Y-13.97
X140.335Y-16.51
X140.335Y-19.05
X140.335Y-21.59
X140.335Y-24.13
X172.72Y-57.15
X172.72Y-59.69
X172.72Y-62.23
X172.72Y-64.77
X172.72Y-67.31
X172.72Y-69.85
X172.72Y-72.39
X172.72Y-74.93
X172.72Y-77.47
X172.72Y-80.01
X180.34Y-57.15
X180.34Y-59.69
X180.34Y-62.23
X180.34Y-64.77
X180.34Y-67.31
X180.34Y-69.85
X180.34Y-72.39
X180.34Y-74.93
X180.34Y-77.47
X180.34Y-80.01
X199.39Y-144.78
X204.39Y-144.78
X38.735Y-73.7
X38.735Y-76.2
X153.035Y-6.35
X153.035Y-8.89
X153.035Y-11.43
X153.035Y-13.97
X153.035Y-16.51
X153.035Y-19.05
X153.035Y-21.59
X153.035Y-24.13
X153.035Y-26.67
X153.035Y-29.21
X160.655Y-6.35
X160.655Y-8.89
X160.655Y-11.43
X160.655Y-13.97
X160.655Y-16.51
X160.655Y-19.05
X160.655Y-21.59
X160.655Y-24.13
X160.655Y-26.67
X160.655Y-29.21
X197.485Y-111.76
X197.485Y-121.92
X199.39Y-125.73
X204.39Y-125.73
X51.515Y-127.0
X56.515Y-127.0
X157.099Y-111.76
X157.099Y-121.92
X40.64Y-132.08
X40.64Y-134.58
X172.72Y-6.35
X172.72Y-8.89
X172.72Y-11.43
X172.72Y-13.97
X172.72Y-16.51
X172.72Y-19.05
X172.72Y-21.59
X180.34Y-6.35
X180.34Y-8.89
X180.34Y-11.43
X180.34Y-13.97
X180.34Y-16.51
X180.34Y-19.05
X180.34Y-21.59
X40.64Y-138.47
X40.64Y-140.97
X139.7Y-36.83
X139.7Y-46.99
X150.495Y-130.81
X150.495Y-140.97
X64.77Y-132.08
X64.77Y-142.24
X31.115Y-6.35
X31.115Y-8.89
X31.115Y-11.43
X31.115Y-13.97
X31.115Y-16.51
X31.115Y-19.05
X31.115Y-21.59
X38.735Y-6.35
X38.735Y-8.89
X38.735Y-11.43
X38.735Y-13.97
X38.735Y-16.51
X38.735Y-19.05
X38.735Y-21.59
X191.135Y-111.76
X191.135Y-121.92
X203.835Y-130.81
X203.835Y-140.97
X31.195Y-109.22
X36.195Y-109.22
X166.37Y-144.78
X171.37Y-144.78
X64.77Y-122.635
X64.77Y-127.635
X45.72Y-47.07
X45.72Y-52.07
X191.135Y-144.78
X196.135Y-144.78
X71.755Y-106.68
X71.755Y-109.22
X71.755Y-111.76
X71.755Y-114.3
X71.755Y-116.84
X71.755Y-119.38
X71.755Y-121.92
X79.375Y-106.68
X79.375Y-109.22
X79.375Y-111.76
X79.375Y-114.3
X79.375Y-116.84
X79.375Y-119.38
X79.375Y-121.92
X172.72Y-26.67
X172.72Y-29.21
X172.72Y-31.75
X172.72Y-34.29
X172.72Y-36.83
X172.72Y-39.37
X172.72Y-41.91
X172.72Y-44.45
X180.34Y-26.67
X180.34Y-29.21
X180.34Y-31.75
X180.34Y-34.29
X180.34Y-36.83
X180.34Y-39.37
X180.34Y-41.91
X180.34Y-44.45
X149.94Y-144.78
X154.94Y-144.78
X13.97Y-71.795
X13.97Y-74.295
X47.625Y-119.46
X47.625Y-124.46
X132.715Y-78.74
X132.715Y-81.28
X132.715Y-83.82
X132.715Y-86.36
X132.715Y-88.9
X132.715Y-91.44
X132.715Y-93.98
X132.715Y-96.52
X132.715Y-99.06
X132.715Y-101.6
X140.335Y-78.74
X140.335Y-81.28
X140.335Y-83.82
X140.335Y-86.36
X140.335Y-88.9
X140.335Y-91.44
X140.335Y-93.98
X140.335Y-96.52
X140.335Y-99.06
X140.335Y-101.6
X92.075Y-39.37
X92.075Y-41.91
X92.075Y-44.45
X92.075Y-46.99
X92.075Y-49.53
X92.075Y-52.07
X92.075Y-54.61
X92.075Y-57.15
X92.075Y-59.69
X92.075Y-62.23
X99.695Y-39.37
X99.695Y-41.91
X99.695Y-44.45
X99.695Y-46.99
X99.695Y-49.53
X99.695Y-52.07
X99.695Y-54.61
X99.695Y-57.15
X99.695Y-59.69
X99.695Y-62.23
X31.115Y-52.705
X31.115Y-55.245
X31.115Y-57.785
X31.115Y-60.325
X31.115Y-62.865
X31.115Y-65.405
X31.115Y-67.945
X38.735Y-52.705
X38.735Y-55.245
X38.735Y-57.785
X38.735Y-60.325
X38.735Y-62.865
X38.735Y-65.405
X38.735Y-67.945
X31.115Y-26.67
X36.115Y-26.67
X195.58Y-29.21
X195.58Y-31.75
X195.58Y-34.29
X195.58Y-36.83
X195.58Y-39.37
X195.58Y-41.91
X195.58Y-44.45
X203.2Y-29.21
X203.2Y-31.75
X203.2Y-34.29
X203.2Y-36.83
X203.2Y-39.37
X203.2Y-41.91
X203.2Y-44.45
X166.624Y-111.76
X166.624Y-121.92
X51.435Y-83.82
X51.435Y-86.36
X51.435Y-88.9
X51.435Y-91.44
X51.435Y-93.98
X51.435Y-96.52
X51.435Y-99.06
X59.055Y-83.82
X59.055Y-86.36
X59.055Y-88.9
X59.055Y-91.44
X59.055Y-93.98
X59.055Y-96.52
X59.055Y-99.06
X188.595Y-26.67
X188.595Y-36.83
X195.58Y-25.4
X200.58Y-25.4
X160.02Y-130.81
X160.02Y-140.97
X51.435Y-52.705
X51.435Y-55.245
X51.435Y-57.785
X51.435Y-60.325
X51.435Y-62.865
X51.435Y-65.405
X51.435Y-67.945
X59.055Y-52.705
X59.055Y-55.245
X59.055Y-57.785
X59.055Y-60.325
X59.055Y-62.865
X59.055Y-65.405
X59.055Y-67.945
X153.035Y-78.74
X153.035Y-81.28
X153.035Y-83.82
X153.035Y-86.36
X153.035Y-88.9
X153.035Y-91.44
X153.035Y-93.98
X153.035Y-96.52
X153.035Y-99.06
X153.035Y-101.6
X160.655Y-78.74
X160.655Y-81.28
X160.655Y-83.82
X160.655Y-86.36
X160.655Y-88.9
X160.655Y-91.44
X160.655Y-93.98
X160.655Y-96.52
X160.655Y-99.06
X160.655Y-101.6
X191.135Y-130.81
X191.135Y-140.97
X160.274Y-111.76
X160.274Y-121.92
X166.37Y-130.81
X166.37Y-140.97
X71.755Y-39.37
X71.755Y-41.91
X71.755Y-44.45
X71.755Y-46.99
X71.755Y-49.53
X71.755Y-52.07
X71.755Y-54.61
X71.755Y-57.15
X71.755Y-59.69
X71.755Y-62.23
X79.375Y-39.37
X79.375Y-41.91
X79.375Y-44.45
X79.375Y-46.99
X79.375Y-49.53
X79.375Y-52.07
X79.375Y-54.61
X79.375Y-57.15
X79.375Y-59.69
X79.375Y-62.23
X166.751Y-31.75
X166.751Y-41.91
X188.595Y-39.37
X188.595Y-44.37
X162.005Y-125.73
X167.005Y-125.73
X182.96Y-144.78
X187.96Y-144.78
X154.084Y-125.73
X159.084Y-125.73
X171.45Y-132.08
X171.45Y-134.62
X171.45Y-137.16
X171.45Y-139.7
X179.07Y-132.08
X179.07Y-134.62
X179.07Y-137.16
X179.07Y-139.7
X145.415Y-36.83
X145.415Y-39.37
X145.415Y-41.91
X145.415Y-44.45
X145.415Y-46.99
X145.415Y-49.53
X145.415Y-52.07
X145.415Y-54.61
X145.415Y-57.15
X145.415Y-59.69
X145.415Y-62.23
X145.415Y-64.77
X160.655Y-36.83
X160.655Y-39.37
X160.655Y-41.91
X160.655Y-44.45
X160.655Y-46.99
X160.655Y-49.53
X160.655Y-52.07
X160.655Y-54.61
X160.655Y-57.15
X160.655Y-59.69
X160.655Y-62.23
X160.655Y-64.77
X55.88Y-142.24
X60.88Y-142.24
X147.32Y-130.81
X147.32Y-140.97
X33.655Y-130.175
X33.655Y-132.675
X19.05Y-26.67
X21.55Y-26.67
X191.135Y-125.73
X196.135Y-125.73
X182.96Y-125.73
X187.96Y-125.73
T4
X5.0Y-133.73
X5.0Y-136.27
T5
X56.515Y-132.715
X59.055Y-132.715
X21.59Y-71.755
X21.59Y-74.295
X21.59Y-76.835
X212.725Y-36.83
X212.725Y-39.37
X212.725Y-41.91
X189.23Y-99.695
X191.77Y-99.695
X194.31Y-99.695
T6
X203.73Y-54.68
X203.73Y-57.22
X203.73Y-59.76
X203.73Y-62.3
X203.73Y-64.84
X203.73Y-67.38
X203.73Y-69.92
X203.73Y-72.46
X203.73Y-75.0
X203.73Y-77.54
X203.73Y-80.08
X203.73Y-82.62
X203.73Y-85.16
X203.73Y-87.7
X203.73Y-90.24
X203.73Y-92.78
X203.73Y-95.32
X206.27Y-54.68
X206.27Y-57.22
X206.27Y-59.76
X206.27Y-62.3
X206.27Y-64.84
X206.27Y-67.38
X206.27Y-69.92
X206.27Y-72.46
X206.27Y-75.0
X206.27Y-77.54
X206.27Y-80.08
X206.27Y-82.62
X206.27Y-85.16
X206.27Y-87.7
X206.27Y-90.24
X206.27Y-92.78
X206.27Y-95.32
X213.73Y-54.68
X213.73Y-57.22
X213.73Y-59.76
X213.73Y-62.3
X213.73Y-64.84
X213.73Y-67.38
X213.73Y-69.92
X213.73Y-72.46
X213.73Y-75.0
X213.73Y-77.54
X213.73Y-80.08
X213.73Y-82.62
X213.73Y-85.16
X213.73Y-87.7
X213.73Y-90.24
X213.73Y-92.78
X213.73Y-95.32
X216.27Y-54.68
X216.27Y-57.22
X216.27Y-59.76
X216.27Y-62.3
X216.27Y-64.84
X216.27Y-67.38
X216.27Y-69.92
X216.27Y-72.46
X216.27Y-75.0
X216.27Y-77.54
X216.27Y-80.08
X216.27Y-82.62
X216.27Y-85.16
X216.27Y-87.7
X216.27Y-90.24
X216.27Y-92.78
X216.27Y-95.32
T7
X19.05Y-12.7
X19.05Y-22.86
X13.97Y-12.7
X13.97Y-22.86
X19.685Y-87.63
X19.685Y-97.79
X8.89Y-12.7
X8.89Y-22.86
X24.13Y-12.7
X24.13Y-22.86
X19.685Y-107.95
X19.685Y-118.11
T8
X12.185Y-38.1
X19.685Y-38.1
X15.0Y-109.92
X15.0Y-112.46
X15.0Y-115.0
X60.325Y-73.66
X60.325Y-76.2
X17.46Y-145.0
X20.0Y-145.0
X22.54Y-145.0
X209.55Y-135.89
X212.09Y-135.89
X214.63Y-135.89
X217.17Y-135.89
X209.55Y-113.03
X212.09Y-113.03
X214.63Y-113.03
X217.17Y-113.03
X17.46Y-5.0
X20.0Y-5.0
X22.54Y-5.0
X5.0Y-73.73
X5.0Y-76.27
X12.185Y-55.245
X19.685Y-55.245
X15.0Y-89.92
X15.0Y-92.46
X15.0Y-95.0
T9
X210.2Y-120.3
X210.2Y-129.7
X214.0Y-120.3
X214.0Y-129.7
X217.8Y-120.3
X217.8Y-129.7
T10
X5.0Y-5.0
X215.0Y-5.0
X125.0Y-145.0
X5.0Y-145.0
X215.0Y-145.0
T0
M30
